<?xml version="1.0" encoding="utf-8" standalone="no"?>
<!DOCTYPE svg PUBLIC "-//W3C//DTD SVG 1.1//EN"
  "http://www.w3.org/Graphics/SVG/1.1/DTD/svg11.dtd">
<!-- Created with matplotlib (https://matplotlib.org/) -->
<svg height="432pt" version="1.1" viewBox="0 0 432 432" width="432pt" xmlns="http://www.w3.org/2000/svg" xmlns:xlink="http://www.w3.org/1999/xlink">
 <defs>
  <style type="text/css">
*{stroke-linecap:butt;stroke-linejoin:round;}
  </style>
 </defs>
 <g id="figure_1">
  <g id="patch_1">
   <path d="M 0 432 
L 432 432 
L 432 0 
L 0 0 
z
" style="fill:#ffffff;"/>
  </g>
  <g id="axes_1">
   <g id="patch_2">
    <path d="M 54 384.48 
L 388.8 384.48 
L 388.8 51.84 
L 54 51.84 
z
" style="fill:#ffffff;"/>
   </g>
   <g id="PathCollection_1">
    <path clip-path="url(#p9c30defc64)" d="M 90.140513 333.424531 
C 91.288876 333.424531 92.39036 332.968281 93.202375 332.156266 
C 94.01439 331.34425 94.47064 330.242767 94.47064 329.094404 
C 94.47064 327.94604 94.01439 326.844557 93.202375 326.032541 
C 92.39036 325.220526 91.288876 324.764277 90.140513 324.764277 
C 88.99215 324.764277 87.890666 325.220526 87.078651 326.032541 
C 86.266635 326.844557 85.810386 327.94604 85.810386 329.094404 
C 85.810386 330.242767 86.266635 331.34425 87.078651 332.156266 
C 87.890666 332.968281 88.99215 333.424531 90.140513 333.424531 
z
" style="fill:#1f77b4;stroke:#ffffff;stroke-width:0.75;"/>
    <path clip-path="url(#p9c30defc64)" d="M 69.225387 322.825025 
C 70.37375 322.825025 71.475234 322.368776 72.287249 321.55676 
C 73.099264 320.744745 73.555514 319.643261 73.555514 318.494898 
C 73.555514 317.346535 73.099264 316.245051 72.287249 315.433036 
C 71.475234 314.62102 70.37375 314.164771 69.225387 314.164771 
C 68.077024 314.164771 66.97554 314.62102 66.163525 315.433036 
C 65.351509 316.245051 64.89526 317.346535 64.89526 318.494898 
C 64.89526 319.643261 65.351509 320.744745 66.163525 321.55676 
C 66.97554 322.368776 68.077024 322.825025 69.225387 322.825025 
z
" style="fill:#1f77b4;stroke:#ffffff;stroke-width:0.75;"/>
    <path clip-path="url(#p9c30defc64)" d="M 115.953196 332.941748 
C 117.101559 332.941748 118.203043 332.485498 119.015058 331.673483 
C 119.827073 330.861467 120.283323 329.759984 120.283323 328.611621 
C 120.283323 327.463257 119.827073 326.361774 119.015058 325.549758 
C 118.203043 324.737743 117.101559 324.281494 115.953196 324.281494 
C 114.804833 324.281494 113.703349 324.737743 112.891334 325.549758 
C 112.079318 326.361774 111.623069 327.463257 111.623069 328.611621 
C 111.623069 329.759984 112.079318 330.861467 112.891334 331.673483 
C 113.703349 332.485498 114.804833 332.941748 115.953196 332.941748 
z
" style="fill:#1f77b4;stroke:#ffffff;stroke-width:0.75;"/>
    <path clip-path="url(#p9c30defc64)" d="M 117.906207 336.629136 
L 120.07127 334.464073 
L 122.236334 336.629136 
L 124.401397 334.464073 
L 122.236334 332.299009 
L 124.401397 330.133946 
L 122.236334 327.968882 
L 120.07127 330.133946 
L 117.906207 327.968882 
L 115.741143 330.133946 
L 117.906207 332.299009 
L 115.741143 334.464073 
z
" style="fill:#1f77b4;stroke:#ffffff;stroke-width:0.75;"/>
    <path clip-path="url(#p9c30defc64)" d="M 173.939001 346.463507 
L 176.104065 344.298444 
L 178.269128 346.463507 
L 180.434192 344.298444 
L 178.269128 342.13338 
L 180.434192 339.968317 
L 178.269128 337.803253 
L 176.104065 339.968317 
L 173.939001 337.803253 
L 171.773938 339.968317 
L 173.939001 342.13338 
L 171.773938 344.298444 
z
" style="fill:#1f77b4;stroke:#ffffff;stroke-width:0.75;"/>
    <path clip-path="url(#p9c30defc64)" d="M 134.3865 341.404116 
C 135.534863 341.404116 136.636347 340.947867 137.448362 340.135852 
C 138.260378 339.323836 138.716627 338.222353 138.716627 337.073989 
C 138.716627 335.925626 138.260378 334.824143 137.448362 334.012127 
C 136.636347 333.200112 135.534863 332.743862 134.3865 332.743862 
C 133.238137 332.743862 132.136653 333.200112 131.324638 334.012127 
C 130.512623 334.824143 130.056373 335.925626 130.056373 337.073989 
C 130.056373 338.222353 130.512623 339.323836 131.324638 340.135852 
C 132.136653 340.947867 133.238137 341.404116 134.3865 341.404116 
z
" style="fill:#1f77b4;stroke:#ffffff;stroke-width:0.75;"/>
    <path clip-path="url(#p9c30defc64)" d="M 201.11688 350.464282 
C 202.265243 350.464282 203.366726 350.008033 204.178742 349.196018 
C 204.990757 348.384002 205.447007 347.282518 205.447007 346.134155 
C 205.447007 344.985792 204.990757 343.884309 204.178742 343.072293 
C 203.366726 342.260278 202.265243 341.804028 201.11688 341.804028 
C 199.968517 341.804028 198.867033 342.260278 198.055017 343.072293 
C 197.243002 343.884309 196.786753 344.985792 196.786753 346.134155 
C 196.786753 347.282518 197.243002 348.384002 198.055017 349.196018 
C 198.867033 350.008033 199.968517 350.464282 201.11688 350.464282 
z
" style="fill:#1f77b4;stroke:#ffffff;stroke-width:0.75;"/>
    <path clip-path="url(#p9c30defc64)" d="M 145.121016 341.841669 
L 147.286079 339.676605 
L 149.451143 341.841669 
L 151.616206 339.676605 
L 149.451143 337.511542 
L 151.616206 335.346478 
L 149.451143 333.181415 
L 147.286079 335.346478 
L 145.121016 333.181415 
L 142.955952 335.346478 
L 145.121016 337.511542 
L 142.955952 339.676605 
z
" style="fill:#1f77b4;stroke:#ffffff;stroke-width:0.75;"/>
    <path clip-path="url(#p9c30defc64)" d="M 156.391835 337.573253 
C 157.540199 337.573253 158.641682 337.117003 159.453698 336.304988 
C 160.265713 335.492973 160.721962 334.391489 160.721962 333.243126 
C 160.721962 332.094763 160.265713 330.993279 159.453698 330.181264 
C 158.641682 329.369248 157.540199 328.912999 156.391835 328.912999 
C 155.243472 328.912999 154.141989 329.369248 153.329973 330.181264 
C 152.517958 330.993279 152.061708 332.094763 152.061708 333.243126 
C 152.061708 334.391489 152.517958 335.492973 153.329973 336.304988 
C 154.141989 337.117003 155.243472 337.573253 156.391835 337.573253 
z
" style="fill:#1f77b4;stroke:#ffffff;stroke-width:0.75;"/>
    <path clip-path="url(#p9c30defc64)" d="M 138.352898 315.833677 
C 139.501261 315.833677 140.602744 315.377427 141.41476 314.565412 
C 142.226775 313.753397 142.683025 312.651913 142.683025 311.50355 
C 142.683025 310.355187 142.226775 309.253703 141.41476 308.441688 
C 140.602744 307.629672 139.501261 307.173423 138.352898 307.173423 
C 137.204535 307.173423 136.103051 307.629672 135.291035 308.441688 
C 134.47902 309.253703 134.022771 310.355187 134.022771 311.50355 
C 134.022771 312.651913 134.47902 313.753397 135.291035 314.565412 
C 136.103051 315.377427 137.204535 315.833677 138.352898 315.833677 
z
" style="fill:#1f77b4;stroke:#ffffff;stroke-width:0.75;"/>
    <path clip-path="url(#p9c30defc64)" d="M 163.475084 319.835649 
C 164.623448 319.835649 165.724931 319.3794 166.536947 318.567384 
C 167.348962 317.755369 167.805212 316.653885 167.805212 315.505522 
C 167.805212 314.357159 167.348962 313.255675 166.536947 312.44366 
C 165.724931 311.631645 164.623448 311.175395 163.475084 311.175395 
C 162.326721 311.175395 161.225238 311.631645 160.413222 312.44366 
C 159.601207 313.255675 159.144957 314.357159 159.144957 315.505522 
C 159.144957 316.653885 159.601207 317.755369 160.413222 318.567384 
C 161.225238 319.3794 162.326721 319.835649 163.475084 319.835649 
z
" style="fill:#1f77b4;stroke:#ffffff;stroke-width:0.75;"/>
    <path clip-path="url(#p9c30defc64)" d="M 94.012997 297.780775 
L 96.178061 295.615711 
L 98.343124 297.780775 
L 100.508188 295.615711 
L 98.343124 293.450648 
L 100.508188 291.285584 
L 98.343124 289.120521 
L 96.178061 291.285584 
L 94.012997 289.120521 
L 91.847934 291.285584 
L 94.012997 293.450648 
L 91.847934 295.615711 
z
" style="fill:#1f77b4;stroke:#ffffff;stroke-width:0.75;"/>
    <path clip-path="url(#p9c30defc64)" d="M 264.715059 334.001313 
L 266.880123 331.836249 
L 269.045186 334.001313 
L 271.21025 331.836249 
L 269.045186 329.671186 
L 271.21025 327.506122 
L 269.045186 325.341059 
L 266.880123 327.506122 
L 264.715059 325.341059 
L 262.549996 327.506122 
L 264.715059 329.671186 
L 262.549996 331.836249 
z
" style="fill:#1f77b4;stroke:#ffffff;stroke-width:0.75;"/>
    <path clip-path="url(#p9c30defc64)" d="M 348.257594 338.862275 
C 349.405957 338.862275 350.50744 338.406025 351.319456 337.59401 
C 352.131471 336.781994 352.587721 335.680511 352.587721 334.532148 
C 352.587721 333.383785 352.131471 332.282301 351.319456 331.470285 
C 350.50744 330.65827 349.405957 330.202021 348.257594 330.202021 
C 347.10923 330.202021 346.007747 330.65827 345.195731 331.470285 
C 344.383716 332.282301 343.927467 333.383785 343.927467 334.532148 
C 343.927467 335.680511 344.383716 336.781994 345.195731 337.59401 
C 346.007747 338.406025 347.10923 338.862275 348.257594 338.862275 
z
" style="fill:#1f77b4;stroke:#ffffff;stroke-width:0.75;"/>
    <path clip-path="url(#p9c30defc64)" d="M 157.651012 328.022849 
L 159.816075 325.857786 
L 161.981139 328.022849 
L 164.146202 325.857786 
L 161.981139 323.692722 
L 164.146202 321.527659 
L 161.981139 319.362595 
L 159.816075 321.527659 
L 157.651012 319.362595 
L 155.485948 321.527659 
L 157.651012 323.692722 
L 155.485948 325.857786 
z
" style="fill:#1f77b4;stroke:#ffffff;stroke-width:0.75;"/>
    <path clip-path="url(#p9c30defc64)" d="M 215.404981 342.50755 
C 216.553344 342.50755 217.654828 342.051301 218.466843 341.239285 
C 219.278858 340.42727 219.735108 339.325786 219.735108 338.177423 
C 219.735108 337.02906 219.278858 335.927576 218.466843 335.115561 
C 217.654828 334.303546 216.553344 333.847296 215.404981 333.847296 
C 214.256618 333.847296 213.155134 334.303546 212.343119 335.115561 
C 211.531103 335.927576 211.074854 337.02906 211.074854 338.177423 
C 211.074854 339.325786 211.531103 340.42727 212.343119 341.239285 
C 213.155134 342.051301 214.256618 342.50755 215.404981 342.50755 
z
" style="fill:#ff7f0e;stroke:#ffffff;stroke-width:0.75;"/>
    <path clip-path="url(#p9c30defc64)" d="M 159.369535 340.145915 
L 161.534599 337.980852 
L 163.699663 340.145915 
L 165.864726 337.980852 
L 163.699663 335.815788 
L 165.864726 333.650725 
L 163.699663 331.485661 
L 161.534599 333.650725 
L 159.369535 331.485661 
L 157.204472 333.650725 
L 159.369535 335.815788 
L 157.204472 337.980852 
z
" style="fill:#ff7f0e;stroke:#ffffff;stroke-width:0.75;"/>
    <path clip-path="url(#p9c30defc64)" d="M 104.869814 331.550529 
C 106.018177 331.550529 107.119661 331.094279 107.931676 330.282264 
C 108.743692 329.470248 109.199941 328.368765 109.199941 327.220402 
C 109.199941 326.072038 108.743692 324.970555 107.931676 324.158539 
C 107.119661 323.346524 106.018177 322.890275 104.869814 322.890275 
C 103.721451 322.890275 102.619967 323.346524 101.807952 324.158539 
C 100.995937 324.970555 100.539687 326.072038 100.539687 327.220402 
C 100.539687 328.368765 100.995937 329.470248 101.807952 330.282264 
C 102.619967 331.094279 103.721451 331.550529 104.869814 331.550529 
z
" style="fill:#ff7f0e;stroke:#ffffff;stroke-width:0.75;"/>
    <path clip-path="url(#p9c30defc64)" d="M 161.81702 345.770515 
L 163.982083 343.605451 
L 166.147147 345.770515 
L 168.31221 343.605451 
L 166.147147 341.440388 
L 168.31221 339.275324 
L 166.147147 337.110261 
L 163.982083 339.275324 
L 161.81702 337.110261 
L 159.651956 339.275324 
L 161.81702 341.440388 
L 159.651956 343.605451 
z
" style="fill:#ff7f0e;stroke:#ffffff;stroke-width:0.75;"/>
    <path clip-path="url(#p9c30defc64)" d="M 114.594834 331.58053 
C 115.743197 331.58053 116.844681 331.12428 117.656696 330.312265 
C 118.468711 329.50025 118.924961 328.398766 118.924961 327.250403 
C 118.924961 326.10204 118.468711 325.000556 117.656696 324.188541 
C 116.844681 323.376525 115.743197 322.920276 114.594834 322.920276 
C 113.446471 322.920276 112.344987 323.376525 111.532972 324.188541 
C 110.720956 325.000556 110.264707 326.10204 110.264707 327.250403 
C 110.264707 328.398766 110.720956 329.50025 111.532972 330.312265 
C 112.344987 331.12428 113.446471 331.58053 114.594834 331.58053 
z
" style="fill:#ff7f0e;stroke:#ffffff;stroke-width:0.75;"/>
    <path clip-path="url(#p9c30defc64)" d="M 203.117717 347.002521 
C 204.26608 347.002521 205.367563 346.546271 206.179579 345.734256 
C 206.991594 344.922241 207.447844 343.820757 207.447844 342.672394 
C 207.447844 341.524031 206.991594 340.422547 206.179579 339.610532 
C 205.367563 338.798516 204.26608 338.342267 203.117717 338.342267 
C 201.969353 338.342267 200.86787 338.798516 200.055854 339.610532 
C 199.243839 340.422547 198.78759 341.524031 198.78759 342.672394 
C 198.78759 343.820757 199.243839 344.922241 200.055854 345.734256 
C 200.86787 346.546271 201.969353 347.002521 203.117717 347.002521 
z
" style="fill:#ff7f0e;stroke:#ffffff;stroke-width:0.75;"/>
    <path clip-path="url(#p9c30defc64)" d="M 173.144347 342.175661 
C 174.29271 342.175661 175.394194 341.719412 176.206209 340.907396 
C 177.018224 340.095381 177.474474 338.993897 177.474474 337.845534 
C 177.474474 336.697171 177.018224 335.595687 176.206209 334.783672 
C 175.394194 333.971657 174.29271 333.515407 173.144347 333.515407 
C 171.995984 333.515407 170.8945 333.971657 170.082485 334.783672 
C 169.270469 335.595687 168.81422 336.697171 168.81422 337.845534 
C 168.81422 338.993897 169.270469 340.095381 170.082485 340.907396 
C 170.8945 341.719412 171.995984 342.175661 173.144347 342.175661 
z
" style="fill:#ff7f0e;stroke:#ffffff;stroke-width:0.75;"/>
    <path clip-path="url(#p9c30defc64)" d="M 194.263921 321.427446 
C 195.412285 321.427446 196.513768 320.971196 197.325784 320.159181 
C 198.137799 319.347166 198.594048 318.245682 198.594048 317.097319 
C 198.594048 315.948956 198.137799 314.847472 197.325784 314.035457 
C 196.513768 313.223441 195.412285 312.767192 194.263921 312.767192 
C 193.115558 312.767192 192.014075 313.223441 191.202059 314.035457 
C 190.390044 314.847472 189.933794 315.948956 189.933794 317.097319 
C 189.933794 318.245682 190.390044 319.347166 191.202059 320.159181 
C 192.014075 320.971196 193.115558 321.427446 194.263921 321.427446 
z
" style="fill:#ff7f0e;stroke:#ffffff;stroke-width:0.75;"/>
    <path clip-path="url(#p9c30defc64)" d="M 126.626627 306.181044 
C 127.77499 306.181044 128.876473 305.724794 129.688489 304.912779 
C 130.500504 304.100763 130.956754 302.99928 130.956754 301.850916 
C 130.956754 300.702553 130.500504 299.60107 129.688489 298.789054 
C 128.876473 297.977039 127.77499 297.520789 126.626627 297.520789 
C 125.478263 297.520789 124.37678 297.977039 123.564764 298.789054 
C 122.752749 299.60107 122.2965 300.702553 122.2965 301.850916 
C 122.2965 302.99928 122.752749 304.100763 123.564764 304.912779 
C 124.37678 305.724794 125.478263 306.181044 126.626627 306.181044 
z
" style="fill:#ff7f0e;stroke:#ffffff;stroke-width:0.75;"/>
    <path clip-path="url(#p9c30defc64)" d="M 243.729237 312.244572 
L 245.894301 310.079508 
L 248.059364 312.244572 
L 250.224428 310.079508 
L 248.059364 307.914444 
L 250.224428 305.749381 
L 248.059364 303.584317 
L 245.894301 305.749381 
L 243.729237 303.584317 
L 241.564174 305.749381 
L 243.729237 307.914444 
L 241.564174 310.079508 
z
" style="fill:#ff7f0e;stroke:#ffffff;stroke-width:0.75;"/>
    <path clip-path="url(#p9c30defc64)" d="M 246.083799 313.300228 
L 248.248863 311.135165 
L 250.413926 313.300228 
L 252.57899 311.135165 
L 250.413926 308.970101 
L 252.57899 306.805038 
L 250.413926 304.639974 
L 248.248863 306.805038 
L 246.083799 304.639974 
L 243.918736 306.805038 
L 246.083799 308.970101 
L 243.918736 311.135165 
z
" style="fill:#ff7f0e;stroke:#ffffff;stroke-width:0.75;"/>
    <path clip-path="url(#p9c30defc64)" d="M 354.249084 315.351389 
C 355.397447 315.351389 356.498931 314.89514 357.310947 314.083124 
C 358.122962 313.271109 358.579211 312.169625 358.579211 311.021262 
C 358.579211 309.872899 358.122962 308.771415 357.310947 307.9594 
C 356.498931 307.147385 355.397447 306.691135 354.249084 306.691135 
C 353.100721 306.691135 351.999238 307.147385 351.187222 307.9594 
C 350.375207 308.771415 349.918957 309.872899 349.918957 311.021262 
C 349.918957 312.169625 350.375207 313.271109 351.187222 314.083124 
C 351.999238 314.89514 353.100721 315.351389 354.249084 315.351389 
z
" style="fill:#ff7f0e;stroke:#ffffff;stroke-width:0.75;"/>
    <path clip-path="url(#p9c30defc64)" d="M 373.574613 330.13195 
C 374.722976 330.13195 375.82446 329.675701 376.636475 328.863686 
C 377.448491 328.05167 377.90474 326.950187 377.90474 325.801823 
C 377.90474 324.65346 377.448491 323.551977 376.636475 322.739961 
C 375.82446 321.927946 374.722976 321.471696 373.574613 321.471696 
C 372.42625 321.471696 371.324766 321.927946 370.512751 322.739961 
C 369.700736 323.551977 369.244486 324.65346 369.244486 325.801823 
C 369.244486 326.950187 369.700736 328.05167 370.512751 328.863686 
C 371.324766 329.675701 372.42625 330.13195 373.574613 330.13195 
z
" style="fill:#ff7f0e;stroke:#ffffff;stroke-width:0.75;"/>
    <path clip-path="url(#p9c30defc64)" d="M 213.790898 324.896184 
C 214.939261 324.896184 216.040745 324.439935 216.85276 323.627919 
C 217.664776 322.815904 218.121025 321.71442 218.121025 320.566057 
C 218.121025 319.417694 217.664776 318.31621 216.85276 317.504195 
C 216.040745 316.69218 214.939261 316.23593 213.790898 316.23593 
C 212.642535 316.23593 211.541051 316.69218 210.729036 317.504195 
C 209.917021 318.31621 209.460771 319.417694 209.460771 320.566057 
C 209.460771 321.71442 209.917021 322.815904 210.729036 323.627919 
C 211.541051 324.439935 212.642535 324.896184 213.790898 324.896184 
z
" style="fill:#ff7f0e;stroke:#ffffff;stroke-width:0.75;"/>
    <path clip-path="url(#p9c30defc64)" d="M 314.260054 71.300416 
C 315.408417 71.300416 316.509901 70.844166 317.321916 70.032151 
C 318.133932 69.220136 318.590181 68.118652 318.590181 66.970289 
C 318.590181 65.821926 318.133932 64.720442 317.321916 63.908427 
C 316.509901 63.096411 315.408417 62.640162 314.260054 62.640162 
C 313.111691 62.640162 312.010207 63.096411 311.198192 63.908427 
C 310.386177 64.720442 309.929927 65.821926 309.929927 66.970289 
C 309.929927 68.118652 310.386177 69.220136 311.198192 70.032151 
C 312.010207 70.844166 313.111691 71.300416 314.260054 71.300416 
z
" style="fill:#ff7f0e;stroke:#ffffff;stroke-width:0.75;"/>
    <path clip-path="url(#p9c30defc64)" d="M 230.38162 328.053283 
C 231.529983 328.053283 232.631467 327.597033 233.443482 326.785018 
C 234.255498 325.973003 234.711747 324.871519 234.711747 323.723156 
C 234.711747 322.574793 234.255498 321.473309 233.443482 320.661294 
C 232.631467 319.849278 231.529983 319.393029 230.38162 319.393029 
C 229.233257 319.393029 228.131773 319.849278 227.319758 320.661294 
C 226.507742 321.473309 226.051493 322.574793 226.051493 323.723156 
C 226.051493 324.871519 226.507742 325.973003 227.319758 326.785018 
C 228.131773 327.597033 229.233257 328.053283 230.38162 328.053283 
z
" style="fill:#ff7f0e;stroke:#ffffff;stroke-width:0.75;"/>
    <path clip-path="url(#p9c30defc64)" d="M 290.627984 355.848731 
C 291.776347 355.848731 292.877831 355.392482 293.689846 354.580466 
C 294.501862 353.768451 294.958111 352.666967 294.958111 351.518604 
C 294.958111 350.370241 294.501862 349.268757 293.689846 348.456742 
C 292.877831 347.644727 291.776347 347.188477 290.627984 347.188477 
C 289.479621 347.188477 288.378137 347.644727 287.566122 348.456742 
C 286.754107 349.268757 286.297857 350.370241 286.297857 351.518604 
C 286.297857 352.666967 286.754107 353.768451 287.566122 354.580466 
C 288.378137 355.392482 289.479621 355.848731 290.627984 355.848731 
z
" style="fill:#2ca02c;stroke:#ffffff;stroke-width:0.75;"/>
    <path clip-path="url(#p9c30defc64)" d="M 285.907697 368.157434 
C 287.05606 368.157434 288.157544 367.701185 288.969559 366.889169 
C 289.781574 366.077154 290.237824 364.97567 290.237824 363.827307 
C 290.237824 362.678944 289.781574 361.57746 288.969559 360.765445 
C 288.157544 359.95343 287.05606 359.49718 285.907697 359.49718 
C 284.759334 359.49718 283.65785 359.95343 282.845835 360.765445 
C 282.033819 361.57746 281.57757 362.678944 281.57757 363.827307 
C 281.57757 364.97567 282.033819 366.077154 282.845835 366.889169 
C 283.65785 367.701185 284.759334 368.157434 285.907697 368.157434 
z
" style="fill:#2ca02c;stroke:#ffffff;stroke-width:0.75;"/>
    <path clip-path="url(#p9c30defc64)" d="M 309.859629 369.869766 
C 311.007992 369.869766 312.109476 369.413517 312.921491 368.601501 
C 313.733506 367.789486 314.189756 366.688002 314.189756 365.539639 
C 314.189756 364.391276 313.733506 363.289792 312.921491 362.477777 
C 312.109476 361.665762 311.007992 361.209512 309.859629 361.209512 
C 308.711266 361.209512 307.609782 361.665762 306.797767 362.477777 
C 305.985751 363.289792 305.529502 364.391276 305.529502 365.539639 
C 305.529502 366.688002 305.985751 367.789486 306.797767 368.601501 
C 307.609782 369.413517 308.711266 369.869766 309.859629 369.869766 
z
" style="fill:#2ca02c;stroke:#ffffff;stroke-width:0.75;"/>
    <path clip-path="url(#p9c30defc64)" d="M 305.164139 361.311102 
C 306.312503 361.311102 307.413986 360.854852 308.226002 360.042837 
C 309.038017 359.230822 309.494266 358.129338 309.494266 356.980975 
C 309.494266 355.832612 309.038017 354.731128 308.226002 353.919112 
C 307.413986 353.107097 306.312503 352.650848 305.164139 352.650848 
C 304.015776 352.650848 302.914293 353.107097 302.102277 353.919112 
C 301.290262 354.731128 300.834012 355.832612 300.834012 356.980975 
C 300.834012 358.129338 301.290262 359.230822 302.102277 360.042837 
C 302.914293 360.854852 304.015776 361.311102 305.164139 361.311102 
z
" style="fill:#2ca02c;stroke:#ffffff;stroke-width:0.75;"/>
    <path clip-path="url(#p9c30defc64)" d="M 238.621573 365.817733 
C 239.769936 365.817733 240.87142 365.361484 241.683436 364.549468 
C 242.495451 363.737453 242.9517 362.635969 242.9517 361.487606 
C 242.9517 360.339243 242.495451 359.237759 241.683436 358.425744 
C 240.87142 357.613729 239.769936 357.157479 238.621573 357.157479 
C 237.47321 357.157479 236.371727 357.613729 235.559711 358.425744 
C 234.747696 359.237759 234.291446 360.339243 234.291446 361.487606 
C 234.291446 362.635969 234.747696 363.737453 235.559711 364.549468 
C 236.371727 365.361484 237.47321 365.817733 238.621573 365.817733 
z
" style="fill:#2ca02c;stroke:#ffffff;stroke-width:0.75;"/>
    <path clip-path="url(#p9c30defc64)" d="M 249.427041 365.522583 
C 250.575404 365.522583 251.676888 365.066334 252.488903 364.254318 
C 253.300919 363.442303 253.757168 362.340819 253.757168 361.192456 
C 253.757168 360.044093 253.300919 358.942609 252.488903 358.130594 
C 251.676888 357.318579 250.575404 356.862329 249.427041 356.862329 
C 248.278678 356.862329 247.177194 357.318579 246.365179 358.130594 
C 245.553164 358.942609 245.096914 360.044093 245.096914 361.192456 
C 245.096914 362.340819 245.553164 363.442303 246.365179 364.254318 
C 247.177194 365.066334 248.278678 365.522583 249.427041 365.522583 
z
" style="fill:#2ca02c;stroke:#ffffff;stroke-width:0.75;"/>
    <path clip-path="url(#p9c30defc64)" d="M 201.658138 362.467943 
C 202.806501 362.467943 203.907985 362.011694 204.72 361.199679 
C 205.532015 360.387663 205.988265 359.28618 205.988265 358.137816 
C 205.988265 356.989453 205.532015 355.88797 204.72 355.075954 
C 203.907985 354.263939 202.806501 353.807689 201.658138 353.807689 
C 200.509775 353.807689 199.408291 354.263939 198.596275 355.075954 
C 197.78426 355.88797 197.328011 356.989453 197.328011 358.137816 
C 197.328011 359.28618 197.78426 360.387663 198.596275 361.199679 
C 199.408291 362.011694 200.509775 362.467943 201.658138 362.467943 
z
" style="fill:#2ca02c;stroke:#ffffff;stroke-width:0.75;"/>
    <path clip-path="url(#p9c30defc64)" d="M 169.88859 355.552858 
C 171.036953 355.552858 172.138437 355.096608 172.950452 354.284593 
C 173.762468 353.472578 174.218717 352.371094 174.218717 351.222731 
C 174.218717 350.074368 173.762468 348.972884 172.950452 348.160869 
C 172.138437 347.348853 171.036953 346.892604 169.88859 346.892604 
C 168.740227 346.892604 167.638743 347.348853 166.826728 348.160869 
C 166.014713 348.972884 165.558463 350.074368 165.558463 351.222731 
C 165.558463 352.371094 166.014713 353.472578 166.826728 354.284593 
C 167.638743 355.096608 168.740227 355.552858 169.88859 355.552858 
z
" style="fill:#2ca02c;stroke:#ffffff;stroke-width:0.75;"/>
    <path clip-path="url(#p9c30defc64)" d="M 228.021707 363.897736 
C 229.17007 363.897736 230.271554 363.441486 231.08357 362.629471 
C 231.895585 361.817456 232.351834 360.715972 232.351834 359.567609 
C 232.351834 358.419246 231.895585 357.317762 231.08357 356.505747 
C 230.271554 355.693731 229.17007 355.237482 228.021707 355.237482 
C 226.873344 355.237482 225.771861 355.693731 224.959845 356.505747 
C 224.14783 357.317762 223.69158 358.419246 223.69158 359.567609 
C 223.69158 360.715972 224.14783 361.817456 224.959845 362.629471 
C 225.771861 363.441486 226.873344 363.897736 228.021707 363.897736 
z
" style="fill:#2ca02c;stroke:#ffffff;stroke-width:0.75;"/>
    <path clip-path="url(#p9c30defc64)" d="M 173.494661 358.884923 
C 174.643024 358.884923 175.744508 358.428674 176.556523 357.616659 
C 177.368538 356.804643 177.824788 355.70316 177.824788 354.554796 
C 177.824788 353.406433 177.368538 352.30495 176.556523 351.492934 
C 175.744508 350.680919 174.643024 350.224669 173.494661 350.224669 
C 172.346298 350.224669 171.244814 350.680919 170.432799 351.492934 
C 169.620783 352.30495 169.164534 353.406433 169.164534 354.554796 
C 169.164534 355.70316 169.620783 356.804643 170.432799 357.616659 
C 171.244814 358.428674 172.346298 358.884923 173.494661 358.884923 
z
" style="fill:#2ca02c;stroke:#ffffff;stroke-width:0.75;"/>
    <path clip-path="url(#p9c30defc64)" d="M 186.283467 360.876226 
C 187.43183 360.876226 188.533314 360.419976 189.345329 359.607961 
C 190.157344 358.795946 190.613594 357.694462 190.613594 356.546099 
C 190.613594 355.397736 190.157344 354.296252 189.345329 353.484237 
C 188.533314 352.672221 187.43183 352.215972 186.283467 352.215972 
C 185.135104 352.215972 184.03362 352.672221 183.221605 353.484237 
C 182.409589 354.296252 181.95334 355.397736 181.95334 356.546099 
C 181.95334 357.694462 182.409589 358.795946 183.221605 359.607961 
C 184.03362 360.419976 185.135104 360.876226 186.283467 360.876226 
z
" style="fill:#2ca02c;stroke:#ffffff;stroke-width:0.75;"/>
    <path clip-path="url(#p9c30defc64)" d="M 180.251087 357.818513 
C 181.39945 357.818513 182.500933 357.362263 183.312949 356.550248 
C 184.124964 355.738232 184.581214 354.636749 184.581214 353.488386 
C 184.581214 352.340022 184.124964 351.238539 183.312949 350.426523 
C 182.500933 349.614508 181.39945 349.158258 180.251087 349.158258 
C 179.102723 349.158258 178.00124 349.614508 177.189224 350.426523 
C 176.377209 351.238539 175.92096 352.340022 175.92096 353.488386 
C 175.92096 354.636749 176.377209 355.738232 177.189224 356.550248 
C 178.00124 357.362263 179.102723 357.818513 180.251087 357.818513 
z
" style="fill:#2ca02c;stroke:#ffffff;stroke-width:0.75;"/>
    <path clip-path="url(#p9c30defc64)" d="M 209.546879 359.618683 
C 210.695242 359.618683 211.796726 359.162434 212.608741 358.350419 
C 213.420757 357.538403 213.877006 356.43692 213.877006 355.288556 
C 213.877006 354.140193 213.420757 353.03871 212.608741 352.226694 
C 211.796726 351.414679 210.695242 350.958429 209.546879 350.958429 
C 208.398516 350.958429 207.297032 351.414679 206.485017 352.226694 
C 205.673002 353.03871 205.216752 354.140193 205.216752 355.288556 
C 205.216752 356.43692 205.673002 357.538403 206.485017 358.350419 
C 207.297032 359.162434 208.398516 359.618683 209.546879 359.618683 
z
" style="fill:#2ca02c;stroke:#ffffff;stroke-width:0.75;"/>
    <path clip-path="url(#p9c30defc64)" d="M 292.245577 373.679838 
C 293.393941 373.679838 294.495424 373.223589 295.30744 372.411573 
C 296.119455 371.599558 296.575704 370.498074 296.575704 369.349711 
C 296.575704 368.201348 296.119455 367.099864 295.30744 366.287849 
C 294.495424 365.475834 293.393941 365.019584 292.245577 365.019584 
C 291.097214 365.019584 289.995731 365.475834 289.183715 366.287849 
C 288.3717 367.099864 287.91545 368.201348 287.91545 369.349711 
C 287.91545 370.498074 288.3717 371.599558 289.183715 372.411573 
C 289.995731 373.223589 291.097214 373.679838 292.245577 373.679838 
z
" style="fill:#2ca02c;stroke:#ffffff;stroke-width:0.75;"/>
    <path clip-path="url(#p9c30defc64)" d="M 305.965444 372.70376 
C 307.113808 372.70376 308.215291 372.247511 309.027307 371.435495 
C 309.839322 370.62348 310.295571 369.521996 310.295571 368.373633 
C 310.295571 367.22527 309.839322 366.123786 309.027307 365.311771 
C 308.215291 364.499756 307.113808 364.043506 305.965444 364.043506 
C 304.817081 364.043506 303.715598 364.499756 302.903582 365.311771 
C 302.091567 366.123786 301.635317 367.22527 301.635317 368.373633 
C 301.635317 369.521996 302.091567 370.62348 302.903582 371.435495 
C 303.715598 372.247511 304.817081 372.70376 305.965444 372.70376 
z
" style="fill:#d62728;stroke:#ffffff;stroke-width:0.75;"/>
    <path clip-path="url(#p9c30defc64)" d="M 276.994278 364.393874 
C 278.142641 364.393874 279.244125 363.937624 280.05614 363.125609 
C 280.868156 362.313594 281.324405 361.21211 281.324405 360.063747 
C 281.324405 358.915384 280.868156 357.8139 280.05614 357.001885 
C 279.244125 356.189869 278.142641 355.73362 276.994278 355.73362 
C 275.845915 355.73362 274.744431 356.189869 273.932416 357.001885 
C 273.120401 357.8139 272.664151 358.915384 272.664151 360.063747 
C 272.664151 361.21211 273.120401 362.313594 273.932416 363.125609 
C 274.744431 363.937624 275.845915 364.393874 276.994278 364.393874 
z
" style="fill:#d62728;stroke:#ffffff;stroke-width:0.75;"/>
    <path clip-path="url(#p9c30defc64)" d="M 264.14184 366.428376 
C 265.290203 366.428376 266.391687 365.972127 267.203702 365.160111 
C 268.015718 364.348096 268.471967 363.246612 268.471967 362.098249 
C 268.471967 360.949886 268.015718 359.848402 267.203702 359.036387 
C 266.391687 358.224372 265.290203 357.768122 264.14184 357.768122 
C 262.993477 357.768122 261.891993 358.224372 261.079978 359.036387 
C 260.267963 359.848402 259.811713 360.949886 259.811713 362.098249 
C 259.811713 363.246612 260.267963 364.348096 261.079978 365.160111 
C 261.891993 365.972127 262.993477 366.428376 264.14184 366.428376 
z
" style="fill:#d62728;stroke:#ffffff;stroke-width:0.75;"/>
    <path clip-path="url(#p9c30defc64)" d="M 256.953899 362.535707 
C 258.102262 362.535707 259.203746 362.079457 260.015761 361.267442 
C 260.827777 360.455426 261.284026 359.353943 261.284026 358.20558 
C 261.284026 357.057217 260.827777 355.955733 260.015761 355.143717 
C 259.203746 354.331702 258.102262 353.875453 256.953899 353.875453 
C 255.805536 353.875453 254.704052 354.331702 253.892037 355.143717 
C 253.080022 355.955733 252.623772 357.057217 252.623772 358.20558 
C 252.623772 359.353943 253.080022 360.455426 253.892037 361.267442 
C 254.704052 362.079457 255.805536 362.535707 256.953899 362.535707 
z
" style="fill:#d62728;stroke:#ffffff;stroke-width:0.75;"/>
    <path clip-path="url(#p9c30defc64)" d="M 202.435108 357.263147 
C 203.583471 357.263147 204.684955 356.806897 205.49697 355.994882 
C 206.308985 355.182866 206.765235 354.081383 206.765235 352.93302 
C 206.765235 351.784656 206.308985 350.683173 205.49697 349.871157 
C 204.684955 349.059142 203.583471 348.602893 202.435108 348.602893 
C 201.286745 348.602893 200.185261 349.059142 199.373246 349.871157 
C 198.56123 350.683173 198.104981 351.784656 198.104981 352.93302 
C 198.104981 354.081383 198.56123 355.182866 199.373246 355.994882 
C 200.185261 356.806897 201.286745 357.263147 202.435108 357.263147 
z
" style="fill:#d62728;stroke:#ffffff;stroke-width:0.75;"/>
    <path clip-path="url(#p9c30defc64)" d="M 210.554731 363.008888 
C 211.703094 363.008888 212.804578 362.552638 213.616593 361.740623 
C 214.428609 360.928607 214.884858 359.827124 214.884858 358.678761 
C 214.884858 357.530398 214.428609 356.428914 213.616593 355.616898 
C 212.804578 354.804883 211.703094 354.348634 210.554731 354.348634 
C 209.406368 354.348634 208.304884 354.804883 207.492869 355.616898 
C 206.680854 356.428914 206.224604 357.530398 206.224604 358.678761 
C 206.224604 359.827124 206.680854 360.928607 207.492869 361.740623 
C 208.304884 362.552638 209.406368 363.008888 210.554731 363.008888 
z
" style="fill:#d62728;stroke:#ffffff;stroke-width:0.75;"/>
    <path clip-path="url(#p9c30defc64)" d="M 183.921678 360.221937 
C 185.070041 360.221937 186.171525 359.765687 186.983541 358.953672 
C 187.795556 358.141657 188.251805 357.040173 188.251805 355.89181 
C 188.251805 354.743447 187.795556 353.641963 186.983541 352.829948 
C 186.171525 352.017932 185.070041 351.561683 183.921678 351.561683 
C 182.773315 351.561683 181.671831 352.017932 180.859816 352.829948 
C 180.047801 353.641963 179.591551 354.743447 179.591551 355.89181 
C 179.591551 357.040173 180.047801 358.141657 180.859816 358.953672 
C 181.671831 359.765687 182.773315 360.221937 183.921678 360.221937 
z
" style="fill:#d62728;stroke:#ffffff;stroke-width:0.75;"/>
    <path clip-path="url(#p9c30defc64)" d="M 195.696337 360.648547 
C 196.8447 360.648547 197.946184 360.192298 198.758199 359.380282 
C 199.570214 358.568267 200.026464 357.466783 200.026464 356.31842 
C 200.026464 355.170057 199.570214 354.068573 198.758199 353.256558 
C 197.946184 352.444543 196.8447 351.988293 195.696337 351.988293 
C 194.547974 351.988293 193.44649 352.444543 192.634475 353.256558 
C 191.822459 354.068573 191.36621 355.170057 191.36621 356.31842 
C 191.36621 357.466783 191.822459 358.568267 192.634475 359.380282 
C 193.44649 360.192298 194.547974 360.648547 195.696337 360.648547 
z
" style="fill:#d62728;stroke:#ffffff;stroke-width:0.75;"/>
    <path clip-path="url(#p9c30defc64)" d="M 326.663692 349.378064 
C 327.812055 349.378064 328.913539 348.921815 329.725554 348.1098 
C 330.53757 347.297784 330.993819 346.1963 330.993819 345.047937 
C 330.993819 343.899574 330.53757 342.798091 329.725554 341.986075 
C 328.913539 341.17406 327.812055 340.71781 326.663692 340.71781 
C 325.515329 340.71781 324.413845 341.17406 323.60183 341.986075 
C 322.789815 342.798091 322.333565 343.899574 322.333565 345.047937 
C 322.333565 346.1963 322.789815 347.297784 323.60183 348.1098 
C 324.413845 348.921815 325.515329 349.378064 326.663692 349.378064 
z
" style="fill:#d62728;stroke:#ffffff;stroke-width:0.75;"/>
    <path clip-path="url(#p9c30defc64)" d="M 221.532349 361.50125 
C 222.680713 361.50125 223.782196 361.045 224.594212 360.232985 
C 225.406227 359.42097 225.862476 358.319486 225.862476 357.171123 
C 225.862476 356.02276 225.406227 354.921276 224.594212 354.109261 
C 223.782196 353.297245 222.680713 352.840996 221.532349 352.840996 
C 220.383986 352.840996 219.282503 353.297245 218.470487 354.109261 
C 217.658472 354.921276 217.202222 356.02276 217.202222 357.171123 
C 217.202222 358.319486 217.658472 359.42097 218.470487 360.232985 
C 219.282503 361.045 220.383986 361.50125 221.532349 361.50125 
z
" style="fill:#d62728;stroke:#ffffff;stroke-width:0.75;"/>
    <path clip-path="url(#p9c30defc64)" d="M 185.464026 355.516584 
C 186.612389 355.516584 187.713873 355.060335 188.525888 354.24832 
C 189.337904 353.436304 189.794153 352.33482 189.794153 351.186457 
C 189.794153 350.038094 189.337904 348.936611 188.525888 348.124595 
C 187.713873 347.31258 186.612389 346.85633 185.464026 346.85633 
C 184.315663 346.85633 183.214179 347.31258 182.402164 348.124595 
C 181.590149 348.936611 181.133899 350.038094 181.133899 351.186457 
C 181.133899 352.33482 181.590149 353.436304 182.402164 354.24832 
C 183.214179 355.060335 184.315663 355.516584 185.464026 355.516584 
z
" style="fill:#d62728;stroke:#ffffff;stroke-width:0.75;"/>
    <path clip-path="url(#p9c30defc64)" d="M 289.13451 360.782483 
C 290.282873 360.782483 291.384357 360.326234 292.196372 359.514219 
C 293.008388 358.702203 293.464637 357.60072 293.464637 356.452356 
C 293.464637 355.303993 293.008388 354.20251 292.196372 353.390494 
C 291.384357 352.578479 290.282873 352.122229 289.13451 352.122229 
C 287.986147 352.122229 286.884663 352.578479 286.072648 353.390494 
C 285.260632 354.20251 284.804383 355.303993 284.804383 356.452356 
C 284.804383 357.60072 285.260632 358.702203 286.072648 359.514219 
C 286.884663 360.326234 287.986147 360.782483 289.13451 360.782483 
z
" style="fill:#d62728;stroke:#ffffff;stroke-width:0.75;"/>
   </g>
   <g id="PathCollection_2"/>
   <g id="PathCollection_3"/>
   <g id="PathCollection_4"/>
   <g id="PathCollection_5"/>
   <g id="PathCollection_6"/>
   <g id="PathCollection_7"/>
   <g id="PathCollection_8"/>
   <g id="PathCollection_9"/>
   <g id="matplotlib.axis_1">
    <g id="xtick_1">
     <g id="line2d_1">
      <defs>
       <path d="M 0 0 
L 0 3.5 
" id="m29fdaa1fc8" style="stroke:#000000;stroke-width:0.8;"/>
      </defs>
      <g>
       <use style="stroke:#000000;stroke-width:0.8;" x="61.558843" xlink:href="#m29fdaa1fc8" y="384.48"/>
      </g>
     </g>
     <g id="text_1">
      <!-- −200 -->
      <defs>
       <path d="M 10.59375 35.5 
L 73.1875 35.5 
L 73.1875 27.203125 
L 10.59375 27.203125 
z
" id="DejaVuSans-8722"/>
       <path d="M 19.1875 8.296875 
L 53.609375 8.296875 
L 53.609375 0 
L 7.328125 0 
L 7.328125 8.296875 
Q 12.9375 14.109375 22.625 23.890625 
Q 32.328125 33.6875 34.8125 36.53125 
Q 39.546875 41.84375 41.421875 45.53125 
Q 43.3125 49.21875 43.3125 52.78125 
Q 43.3125 58.59375 39.234375 62.25 
Q 35.15625 65.921875 28.609375 65.921875 
Q 23.96875 65.921875 18.8125 64.3125 
Q 13.671875 62.703125 7.8125 59.421875 
L 7.8125 69.390625 
Q 13.765625 71.78125 18.9375 73 
Q 24.125 74.21875 28.421875 74.21875 
Q 39.75 74.21875 46.484375 68.546875 
Q 53.21875 62.890625 53.21875 53.421875 
Q 53.21875 48.921875 51.53125 44.890625 
Q 49.859375 40.875 45.40625 35.40625 
Q 44.1875 33.984375 37.640625 27.21875 
Q 31.109375 20.453125 19.1875 8.296875 
z
" id="DejaVuSans-50"/>
       <path d="M 31.78125 66.40625 
Q 24.171875 66.40625 20.328125 58.90625 
Q 16.5 51.421875 16.5 36.375 
Q 16.5 21.390625 20.328125 13.890625 
Q 24.171875 6.390625 31.78125 6.390625 
Q 39.453125 6.390625 43.28125 13.890625 
Q 47.125 21.390625 47.125 36.375 
Q 47.125 51.421875 43.28125 58.90625 
Q 39.453125 66.40625 31.78125 66.40625 
z
M 31.78125 74.21875 
Q 44.046875 74.21875 50.515625 64.515625 
Q 56.984375 54.828125 56.984375 36.375 
Q 56.984375 17.96875 50.515625 8.265625 
Q 44.046875 -1.421875 31.78125 -1.421875 
Q 19.53125 -1.421875 13.0625 8.265625 
Q 6.59375 17.96875 6.59375 36.375 
Q 6.59375 54.828125 13.0625 64.515625 
Q 19.53125 74.21875 31.78125 74.21875 
z
" id="DejaVuSans-48"/>
      </defs>
      <g transform="translate(47.825249 399.078438)scale(0.1 -0.1)">
       <use xlink:href="#DejaVuSans-8722"/>
       <use x="83.789062" xlink:href="#DejaVuSans-50"/>
       <use x="147.412109" xlink:href="#DejaVuSans-48"/>
       <use x="211.035156" xlink:href="#DejaVuSans-48"/>
      </g>
     </g>
    </g>
    <g id="xtick_2">
     <g id="line2d_2">
      <g>
       <use style="stroke:#000000;stroke-width:0.8;" x="99.072773" xlink:href="#m29fdaa1fc8" y="384.48"/>
      </g>
     </g>
     <g id="text_2">
      <!-- −150 -->
      <defs>
       <path d="M 12.40625 8.296875 
L 28.515625 8.296875 
L 28.515625 63.921875 
L 10.984375 60.40625 
L 10.984375 69.390625 
L 28.421875 72.90625 
L 38.28125 72.90625 
L 38.28125 8.296875 
L 54.390625 8.296875 
L 54.390625 0 
L 12.40625 0 
z
" id="DejaVuSans-49"/>
       <path d="M 10.796875 72.90625 
L 49.515625 72.90625 
L 49.515625 64.59375 
L 19.828125 64.59375 
L 19.828125 46.734375 
Q 21.96875 47.46875 24.109375 47.828125 
Q 26.265625 48.1875 28.421875 48.1875 
Q 40.625 48.1875 47.75 41.5 
Q 54.890625 34.8125 54.890625 23.390625 
Q 54.890625 11.625 47.5625 5.09375 
Q 40.234375 -1.421875 26.90625 -1.421875 
Q 22.3125 -1.421875 17.546875 -0.640625 
Q 12.796875 0.140625 7.71875 1.703125 
L 7.71875 11.625 
Q 12.109375 9.234375 16.796875 8.0625 
Q 21.484375 6.890625 26.703125 6.890625 
Q 35.15625 6.890625 40.078125 11.328125 
Q 45.015625 15.765625 45.015625 23.390625 
Q 45.015625 31 40.078125 35.4375 
Q 35.15625 39.890625 26.703125 39.890625 
Q 22.75 39.890625 18.8125 39.015625 
Q 14.890625 38.140625 10.796875 36.28125 
z
" id="DejaVuSans-53"/>
      </defs>
      <g transform="translate(85.339179 399.078438)scale(0.1 -0.1)">
       <use xlink:href="#DejaVuSans-8722"/>
       <use x="83.789062" xlink:href="#DejaVuSans-49"/>
       <use x="147.412109" xlink:href="#DejaVuSans-53"/>
       <use x="211.035156" xlink:href="#DejaVuSans-48"/>
      </g>
     </g>
    </g>
    <g id="xtick_3">
     <g id="line2d_3">
      <g>
       <use style="stroke:#000000;stroke-width:0.8;" x="136.586702" xlink:href="#m29fdaa1fc8" y="384.48"/>
      </g>
     </g>
     <g id="text_3">
      <!-- −100 -->
      <g transform="translate(122.853108 399.078438)scale(0.1 -0.1)">
       <use xlink:href="#DejaVuSans-8722"/>
       <use x="83.789062" xlink:href="#DejaVuSans-49"/>
       <use x="147.412109" xlink:href="#DejaVuSans-48"/>
       <use x="211.035156" xlink:href="#DejaVuSans-48"/>
      </g>
     </g>
    </g>
    <g id="xtick_4">
     <g id="line2d_4">
      <g>
       <use style="stroke:#000000;stroke-width:0.8;" x="174.100632" xlink:href="#m29fdaa1fc8" y="384.48"/>
      </g>
     </g>
     <g id="text_4">
      <!-- −50 -->
      <g transform="translate(163.548288 399.078438)scale(0.1 -0.1)">
       <use xlink:href="#DejaVuSans-8722"/>
       <use x="83.789062" xlink:href="#DejaVuSans-53"/>
       <use x="147.412109" xlink:href="#DejaVuSans-48"/>
      </g>
     </g>
    </g>
    <g id="xtick_5">
     <g id="line2d_5">
      <g>
       <use style="stroke:#000000;stroke-width:0.8;" x="211.614561" xlink:href="#m29fdaa1fc8" y="384.48"/>
      </g>
     </g>
     <g id="text_5">
      <!-- 0 -->
      <g transform="translate(208.433311 399.078438)scale(0.1 -0.1)">
       <use xlink:href="#DejaVuSans-48"/>
      </g>
     </g>
    </g>
    <g id="xtick_6">
     <g id="line2d_6">
      <g>
       <use style="stroke:#000000;stroke-width:0.8;" x="249.128491" xlink:href="#m29fdaa1fc8" y="384.48"/>
      </g>
     </g>
     <g id="text_6">
      <!-- 50 -->
      <g transform="translate(242.765991 399.078438)scale(0.1 -0.1)">
       <use xlink:href="#DejaVuSans-53"/>
       <use x="63.623047" xlink:href="#DejaVuSans-48"/>
      </g>
     </g>
    </g>
    <g id="xtick_7">
     <g id="line2d_7">
      <g>
       <use style="stroke:#000000;stroke-width:0.8;" x="286.64242" xlink:href="#m29fdaa1fc8" y="384.48"/>
      </g>
     </g>
     <g id="text_7">
      <!-- 100 -->
      <g transform="translate(277.09867 399.078438)scale(0.1 -0.1)">
       <use xlink:href="#DejaVuSans-49"/>
       <use x="63.623047" xlink:href="#DejaVuSans-48"/>
       <use x="127.246094" xlink:href="#DejaVuSans-48"/>
      </g>
     </g>
    </g>
    <g id="xtick_8">
     <g id="line2d_8">
      <g>
       <use style="stroke:#000000;stroke-width:0.8;" x="324.156349" xlink:href="#m29fdaa1fc8" y="384.48"/>
      </g>
     </g>
     <g id="text_8">
      <!-- 150 -->
      <g transform="translate(314.612599 399.078438)scale(0.1 -0.1)">
       <use xlink:href="#DejaVuSans-49"/>
       <use x="63.623047" xlink:href="#DejaVuSans-53"/>
       <use x="127.246094" xlink:href="#DejaVuSans-48"/>
      </g>
     </g>
    </g>
    <g id="xtick_9">
     <g id="line2d_9">
      <g>
       <use style="stroke:#000000;stroke-width:0.8;" x="361.670279" xlink:href="#m29fdaa1fc8" y="384.48"/>
      </g>
     </g>
     <g id="text_9">
      <!-- 200 -->
      <g transform="translate(352.126529 399.078438)scale(0.1 -0.1)">
       <use xlink:href="#DejaVuSans-50"/>
       <use x="63.623047" xlink:href="#DejaVuSans-48"/>
       <use x="127.246094" xlink:href="#DejaVuSans-48"/>
      </g>
     </g>
    </g>
    <g id="text_10">
     <!-- Principal Component 1 -->
     <defs>
      <path d="M 19.671875 64.796875 
L 19.671875 37.40625 
L 32.078125 37.40625 
Q 38.96875 37.40625 42.71875 40.96875 
Q 46.484375 44.53125 46.484375 51.125 
Q 46.484375 57.671875 42.71875 61.234375 
Q 38.96875 64.796875 32.078125 64.796875 
z
M 9.8125 72.90625 
L 32.078125 72.90625 
Q 44.34375 72.90625 50.609375 67.359375 
Q 56.890625 61.8125 56.890625 51.125 
Q 56.890625 40.328125 50.609375 34.8125 
Q 44.34375 29.296875 32.078125 29.296875 
L 19.671875 29.296875 
L 19.671875 0 
L 9.8125 0 
z
" id="DejaVuSans-80"/>
      <path d="M 41.109375 46.296875 
Q 39.59375 47.171875 37.8125 47.578125 
Q 36.03125 48 33.890625 48 
Q 26.265625 48 22.1875 43.046875 
Q 18.109375 38.09375 18.109375 28.8125 
L 18.109375 0 
L 9.078125 0 
L 9.078125 54.6875 
L 18.109375 54.6875 
L 18.109375 46.1875 
Q 20.953125 51.171875 25.484375 53.578125 
Q 30.03125 56 36.53125 56 
Q 37.453125 56 38.578125 55.875 
Q 39.703125 55.765625 41.0625 55.515625 
z
" id="DejaVuSans-114"/>
      <path d="M 9.421875 54.6875 
L 18.40625 54.6875 
L 18.40625 0 
L 9.421875 0 
z
M 9.421875 75.984375 
L 18.40625 75.984375 
L 18.40625 64.59375 
L 9.421875 64.59375 
z
" id="DejaVuSans-105"/>
      <path d="M 54.890625 33.015625 
L 54.890625 0 
L 45.90625 0 
L 45.90625 32.71875 
Q 45.90625 40.484375 42.875 44.328125 
Q 39.84375 48.1875 33.796875 48.1875 
Q 26.515625 48.1875 22.3125 43.546875 
Q 18.109375 38.921875 18.109375 30.90625 
L 18.109375 0 
L 9.078125 0 
L 9.078125 54.6875 
L 18.109375 54.6875 
L 18.109375 46.1875 
Q 21.34375 51.125 25.703125 53.5625 
Q 30.078125 56 35.796875 56 
Q 45.21875 56 50.046875 50.171875 
Q 54.890625 44.34375 54.890625 33.015625 
z
" id="DejaVuSans-110"/>
      <path d="M 48.78125 52.59375 
L 48.78125 44.1875 
Q 44.96875 46.296875 41.140625 47.34375 
Q 37.3125 48.390625 33.40625 48.390625 
Q 24.65625 48.390625 19.8125 42.84375 
Q 14.984375 37.3125 14.984375 27.296875 
Q 14.984375 17.28125 19.8125 11.734375 
Q 24.65625 6.203125 33.40625 6.203125 
Q 37.3125 6.203125 41.140625 7.25 
Q 44.96875 8.296875 48.78125 10.40625 
L 48.78125 2.09375 
Q 45.015625 0.34375 40.984375 -0.53125 
Q 36.96875 -1.421875 32.421875 -1.421875 
Q 20.0625 -1.421875 12.78125 6.34375 
Q 5.515625 14.109375 5.515625 27.296875 
Q 5.515625 40.671875 12.859375 48.328125 
Q 20.21875 56 33.015625 56 
Q 37.15625 56 41.109375 55.140625 
Q 45.0625 54.296875 48.78125 52.59375 
z
" id="DejaVuSans-99"/>
      <path d="M 18.109375 8.203125 
L 18.109375 -20.796875 
L 9.078125 -20.796875 
L 9.078125 54.6875 
L 18.109375 54.6875 
L 18.109375 46.390625 
Q 20.953125 51.265625 25.265625 53.625 
Q 29.59375 56 35.59375 56 
Q 45.5625 56 51.78125 48.09375 
Q 58.015625 40.1875 58.015625 27.296875 
Q 58.015625 14.40625 51.78125 6.484375 
Q 45.5625 -1.421875 35.59375 -1.421875 
Q 29.59375 -1.421875 25.265625 0.953125 
Q 20.953125 3.328125 18.109375 8.203125 
z
M 48.6875 27.296875 
Q 48.6875 37.203125 44.609375 42.84375 
Q 40.53125 48.484375 33.40625 48.484375 
Q 26.265625 48.484375 22.1875 42.84375 
Q 18.109375 37.203125 18.109375 27.296875 
Q 18.109375 17.390625 22.1875 11.75 
Q 26.265625 6.109375 33.40625 6.109375 
Q 40.53125 6.109375 44.609375 11.75 
Q 48.6875 17.390625 48.6875 27.296875 
z
" id="DejaVuSans-112"/>
      <path d="M 34.28125 27.484375 
Q 23.390625 27.484375 19.1875 25 
Q 14.984375 22.515625 14.984375 16.5 
Q 14.984375 11.71875 18.140625 8.90625 
Q 21.296875 6.109375 26.703125 6.109375 
Q 34.1875 6.109375 38.703125 11.40625 
Q 43.21875 16.703125 43.21875 25.484375 
L 43.21875 27.484375 
z
M 52.203125 31.203125 
L 52.203125 0 
L 43.21875 0 
L 43.21875 8.296875 
Q 40.140625 3.328125 35.546875 0.953125 
Q 30.953125 -1.421875 24.3125 -1.421875 
Q 15.921875 -1.421875 10.953125 3.296875 
Q 6 8.015625 6 15.921875 
Q 6 25.140625 12.171875 29.828125 
Q 18.359375 34.515625 30.609375 34.515625 
L 43.21875 34.515625 
L 43.21875 35.40625 
Q 43.21875 41.609375 39.140625 45 
Q 35.0625 48.390625 27.6875 48.390625 
Q 23 48.390625 18.546875 47.265625 
Q 14.109375 46.140625 10.015625 43.890625 
L 10.015625 52.203125 
Q 14.9375 54.109375 19.578125 55.046875 
Q 24.21875 56 28.609375 56 
Q 40.484375 56 46.34375 49.84375 
Q 52.203125 43.703125 52.203125 31.203125 
z
" id="DejaVuSans-97"/>
      <path d="M 9.421875 75.984375 
L 18.40625 75.984375 
L 18.40625 0 
L 9.421875 0 
z
" id="DejaVuSans-108"/>
      <path id="DejaVuSans-32"/>
      <path d="M 64.40625 67.28125 
L 64.40625 56.890625 
Q 59.421875 61.53125 53.78125 63.8125 
Q 48.140625 66.109375 41.796875 66.109375 
Q 29.296875 66.109375 22.65625 58.46875 
Q 16.015625 50.828125 16.015625 36.375 
Q 16.015625 21.96875 22.65625 14.328125 
Q 29.296875 6.6875 41.796875 6.6875 
Q 48.140625 6.6875 53.78125 8.984375 
Q 59.421875 11.28125 64.40625 15.921875 
L 64.40625 5.609375 
Q 59.234375 2.09375 53.4375 0.328125 
Q 47.65625 -1.421875 41.21875 -1.421875 
Q 24.65625 -1.421875 15.125 8.703125 
Q 5.609375 18.84375 5.609375 36.375 
Q 5.609375 53.953125 15.125 64.078125 
Q 24.65625 74.21875 41.21875 74.21875 
Q 47.75 74.21875 53.53125 72.484375 
Q 59.328125 70.75 64.40625 67.28125 
z
" id="DejaVuSans-67"/>
      <path d="M 30.609375 48.390625 
Q 23.390625 48.390625 19.1875 42.75 
Q 14.984375 37.109375 14.984375 27.296875 
Q 14.984375 17.484375 19.15625 11.84375 
Q 23.34375 6.203125 30.609375 6.203125 
Q 37.796875 6.203125 41.984375 11.859375 
Q 46.1875 17.53125 46.1875 27.296875 
Q 46.1875 37.015625 41.984375 42.703125 
Q 37.796875 48.390625 30.609375 48.390625 
z
M 30.609375 56 
Q 42.328125 56 49.015625 48.375 
Q 55.71875 40.765625 55.71875 27.296875 
Q 55.71875 13.875 49.015625 6.21875 
Q 42.328125 -1.421875 30.609375 -1.421875 
Q 18.84375 -1.421875 12.171875 6.21875 
Q 5.515625 13.875 5.515625 27.296875 
Q 5.515625 40.765625 12.171875 48.375 
Q 18.84375 56 30.609375 56 
z
" id="DejaVuSans-111"/>
      <path d="M 52 44.1875 
Q 55.375 50.25 60.0625 53.125 
Q 64.75 56 71.09375 56 
Q 79.640625 56 84.28125 50.015625 
Q 88.921875 44.046875 88.921875 33.015625 
L 88.921875 0 
L 79.890625 0 
L 79.890625 32.71875 
Q 79.890625 40.578125 77.09375 44.375 
Q 74.3125 48.1875 68.609375 48.1875 
Q 61.625 48.1875 57.5625 43.546875 
Q 53.515625 38.921875 53.515625 30.90625 
L 53.515625 0 
L 44.484375 0 
L 44.484375 32.71875 
Q 44.484375 40.625 41.703125 44.40625 
Q 38.921875 48.1875 33.109375 48.1875 
Q 26.21875 48.1875 22.15625 43.53125 
Q 18.109375 38.875 18.109375 30.90625 
L 18.109375 0 
L 9.078125 0 
L 9.078125 54.6875 
L 18.109375 54.6875 
L 18.109375 46.1875 
Q 21.1875 51.21875 25.484375 53.609375 
Q 29.78125 56 35.6875 56 
Q 41.65625 56 45.828125 52.96875 
Q 50 49.953125 52 44.1875 
z
" id="DejaVuSans-109"/>
      <path d="M 56.203125 29.59375 
L 56.203125 25.203125 
L 14.890625 25.203125 
Q 15.484375 15.921875 20.484375 11.0625 
Q 25.484375 6.203125 34.421875 6.203125 
Q 39.59375 6.203125 44.453125 7.46875 
Q 49.3125 8.734375 54.109375 11.28125 
L 54.109375 2.78125 
Q 49.265625 0.734375 44.1875 -0.34375 
Q 39.109375 -1.421875 33.890625 -1.421875 
Q 20.796875 -1.421875 13.15625 6.1875 
Q 5.515625 13.8125 5.515625 26.8125 
Q 5.515625 40.234375 12.765625 48.109375 
Q 20.015625 56 32.328125 56 
Q 43.359375 56 49.78125 48.890625 
Q 56.203125 41.796875 56.203125 29.59375 
z
M 47.21875 32.234375 
Q 47.125 39.59375 43.09375 43.984375 
Q 39.0625 48.390625 32.421875 48.390625 
Q 24.90625 48.390625 20.390625 44.140625 
Q 15.875 39.890625 15.1875 32.171875 
z
" id="DejaVuSans-101"/>
      <path d="M 18.3125 70.21875 
L 18.3125 54.6875 
L 36.8125 54.6875 
L 36.8125 47.703125 
L 18.3125 47.703125 
L 18.3125 18.015625 
Q 18.3125 11.328125 20.140625 9.421875 
Q 21.96875 7.515625 27.59375 7.515625 
L 36.8125 7.515625 
L 36.8125 0 
L 27.59375 0 
Q 17.1875 0 13.234375 3.875 
Q 9.28125 7.765625 9.28125 18.015625 
L 9.28125 47.703125 
L 2.6875 47.703125 
L 2.6875 54.6875 
L 9.28125 54.6875 
L 9.28125 70.21875 
z
" id="DejaVuSans-116"/>
     </defs>
     <g transform="translate(136.228125 416.555781)scale(0.15 -0.15)">
      <use xlink:href="#DejaVuSans-80"/>
      <use x="60.287109" xlink:href="#DejaVuSans-114"/>
      <use x="101.400391" xlink:href="#DejaVuSans-105"/>
      <use x="129.183594" xlink:href="#DejaVuSans-110"/>
      <use x="192.5625" xlink:href="#DejaVuSans-99"/>
      <use x="247.542969" xlink:href="#DejaVuSans-105"/>
      <use x="275.326172" xlink:href="#DejaVuSans-112"/>
      <use x="338.802734" xlink:href="#DejaVuSans-97"/>
      <use x="400.082031" xlink:href="#DejaVuSans-108"/>
      <use x="427.865234" xlink:href="#DejaVuSans-32"/>
      <use x="459.652344" xlink:href="#DejaVuSans-67"/>
      <use x="529.476562" xlink:href="#DejaVuSans-111"/>
      <use x="590.658203" xlink:href="#DejaVuSans-109"/>
      <use x="688.070312" xlink:href="#DejaVuSans-112"/>
      <use x="751.546875" xlink:href="#DejaVuSans-111"/>
      <use x="812.728516" xlink:href="#DejaVuSans-110"/>
      <use x="876.107422" xlink:href="#DejaVuSans-101"/>
      <use x="937.630859" xlink:href="#DejaVuSans-110"/>
      <use x="1001.009766" xlink:href="#DejaVuSans-116"/>
      <use x="1040.21875" xlink:href="#DejaVuSans-32"/>
      <use x="1072.005859" xlink:href="#DejaVuSans-49"/>
     </g>
    </g>
   </g>
   <g id="matplotlib.axis_2">
    <g id="ytick_1">
     <g id="line2d_10">
      <defs>
       <path d="M 0 0 
L -3.5 0 
" id="ma46dcb73d2" style="stroke:#000000;stroke-width:0.8;"/>
      </defs>
      <g>
       <use style="stroke:#000000;stroke-width:0.8;" x="54" xlink:href="#ma46dcb73d2" y="375.855137"/>
      </g>
     </g>
     <g id="text_11">
      <!-- −50 -->
      <g transform="translate(25.895312 379.654356)scale(0.1 -0.1)">
       <use xlink:href="#DejaVuSans-8722"/>
       <use x="83.789062" xlink:href="#DejaVuSans-53"/>
       <use x="147.412109" xlink:href="#DejaVuSans-48"/>
      </g>
     </g>
    </g>
    <g id="ytick_2">
     <g id="line2d_11">
      <g>
       <use style="stroke:#000000;stroke-width:0.8;" x="54" xlink:href="#ma46dcb73d2" y="335.93707"/>
      </g>
     </g>
     <g id="text_12">
      <!-- 0 -->
      <g transform="translate(40.6375 339.736289)scale(0.1 -0.1)">
       <use xlink:href="#DejaVuSans-48"/>
      </g>
     </g>
    </g>
    <g id="ytick_3">
     <g id="line2d_12">
      <g>
       <use style="stroke:#000000;stroke-width:0.8;" x="54" xlink:href="#ma46dcb73d2" y="296.019003"/>
      </g>
     </g>
     <g id="text_13">
      <!-- 50 -->
      <g transform="translate(34.275 299.818222)scale(0.1 -0.1)">
       <use xlink:href="#DejaVuSans-53"/>
       <use x="63.623047" xlink:href="#DejaVuSans-48"/>
      </g>
     </g>
    </g>
    <g id="ytick_4">
     <g id="line2d_13">
      <g>
       <use style="stroke:#000000;stroke-width:0.8;" x="54" xlink:href="#ma46dcb73d2" y="256.100936"/>
      </g>
     </g>
     <g id="text_14">
      <!-- 100 -->
      <g transform="translate(27.9125 259.900155)scale(0.1 -0.1)">
       <use xlink:href="#DejaVuSans-49"/>
       <use x="63.623047" xlink:href="#DejaVuSans-48"/>
       <use x="127.246094" xlink:href="#DejaVuSans-48"/>
      </g>
     </g>
    </g>
    <g id="ytick_5">
     <g id="line2d_14">
      <g>
       <use style="stroke:#000000;stroke-width:0.8;" x="54" xlink:href="#ma46dcb73d2" y="216.182869"/>
      </g>
     </g>
     <g id="text_15">
      <!-- 150 -->
      <g transform="translate(27.9125 219.982088)scale(0.1 -0.1)">
       <use xlink:href="#DejaVuSans-49"/>
       <use x="63.623047" xlink:href="#DejaVuSans-53"/>
       <use x="127.246094" xlink:href="#DejaVuSans-48"/>
      </g>
     </g>
    </g>
    <g id="ytick_6">
     <g id="line2d_15">
      <g>
       <use style="stroke:#000000;stroke-width:0.8;" x="54" xlink:href="#ma46dcb73d2" y="176.264802"/>
      </g>
     </g>
     <g id="text_16">
      <!-- 200 -->
      <g transform="translate(27.9125 180.064021)scale(0.1 -0.1)">
       <use xlink:href="#DejaVuSans-50"/>
       <use x="63.623047" xlink:href="#DejaVuSans-48"/>
       <use x="127.246094" xlink:href="#DejaVuSans-48"/>
      </g>
     </g>
    </g>
    <g id="ytick_7">
     <g id="line2d_16">
      <g>
       <use style="stroke:#000000;stroke-width:0.8;" x="54" xlink:href="#ma46dcb73d2" y="136.346735"/>
      </g>
     </g>
     <g id="text_17">
      <!-- 250 -->
      <g transform="translate(27.9125 140.145954)scale(0.1 -0.1)">
       <use xlink:href="#DejaVuSans-50"/>
       <use x="63.623047" xlink:href="#DejaVuSans-53"/>
       <use x="127.246094" xlink:href="#DejaVuSans-48"/>
      </g>
     </g>
    </g>
    <g id="ytick_8">
     <g id="line2d_17">
      <g>
       <use style="stroke:#000000;stroke-width:0.8;" x="54" xlink:href="#ma46dcb73d2" y="96.428668"/>
      </g>
     </g>
     <g id="text_18">
      <!-- 300 -->
      <defs>
       <path d="M 40.578125 39.3125 
Q 47.65625 37.796875 51.625 33 
Q 55.609375 28.21875 55.609375 21.1875 
Q 55.609375 10.40625 48.1875 4.484375 
Q 40.765625 -1.421875 27.09375 -1.421875 
Q 22.515625 -1.421875 17.65625 -0.515625 
Q 12.796875 0.390625 7.625 2.203125 
L 7.625 11.71875 
Q 11.71875 9.328125 16.59375 8.109375 
Q 21.484375 6.890625 26.8125 6.890625 
Q 36.078125 6.890625 40.9375 10.546875 
Q 45.796875 14.203125 45.796875 21.1875 
Q 45.796875 27.640625 41.28125 31.265625 
Q 36.765625 34.90625 28.71875 34.90625 
L 20.21875 34.90625 
L 20.21875 43.015625 
L 29.109375 43.015625 
Q 36.375 43.015625 40.234375 45.921875 
Q 44.09375 48.828125 44.09375 54.296875 
Q 44.09375 59.90625 40.109375 62.90625 
Q 36.140625 65.921875 28.71875 65.921875 
Q 24.65625 65.921875 20.015625 65.03125 
Q 15.375 64.15625 9.8125 62.3125 
L 9.8125 71.09375 
Q 15.4375 72.65625 20.34375 73.4375 
Q 25.25 74.21875 29.59375 74.21875 
Q 40.828125 74.21875 47.359375 69.109375 
Q 53.90625 64.015625 53.90625 55.328125 
Q 53.90625 49.265625 50.4375 45.09375 
Q 46.96875 40.921875 40.578125 39.3125 
z
" id="DejaVuSans-51"/>
      </defs>
      <g transform="translate(27.9125 100.227887)scale(0.1 -0.1)">
       <use xlink:href="#DejaVuSans-51"/>
       <use x="63.623047" xlink:href="#DejaVuSans-48"/>
       <use x="127.246094" xlink:href="#DejaVuSans-48"/>
      </g>
     </g>
    </g>
    <g id="ytick_9">
     <g id="line2d_18">
      <g>
       <use style="stroke:#000000;stroke-width:0.8;" x="54" xlink:href="#ma46dcb73d2" y="56.510602"/>
      </g>
     </g>
     <g id="text_19">
      <!-- 350 -->
      <g transform="translate(27.9125 60.30982)scale(0.1 -0.1)">
       <use xlink:href="#DejaVuSans-51"/>
       <use x="63.623047" xlink:href="#DejaVuSans-53"/>
       <use x="127.246094" xlink:href="#DejaVuSans-48"/>
      </g>
     </g>
    </g>
    <g id="text_20">
     <!-- Principal Component 2 -->
     <g transform="translate(18.775781 303.331875)rotate(-90)scale(0.15 -0.15)">
      <use xlink:href="#DejaVuSans-80"/>
      <use x="60.287109" xlink:href="#DejaVuSans-114"/>
      <use x="101.400391" xlink:href="#DejaVuSans-105"/>
      <use x="129.183594" xlink:href="#DejaVuSans-110"/>
      <use x="192.5625" xlink:href="#DejaVuSans-99"/>
      <use x="247.542969" xlink:href="#DejaVuSans-105"/>
      <use x="275.326172" xlink:href="#DejaVuSans-112"/>
      <use x="338.802734" xlink:href="#DejaVuSans-97"/>
      <use x="400.082031" xlink:href="#DejaVuSans-108"/>
      <use x="427.865234" xlink:href="#DejaVuSans-32"/>
      <use x="459.652344" xlink:href="#DejaVuSans-67"/>
      <use x="529.476562" xlink:href="#DejaVuSans-111"/>
      <use x="590.658203" xlink:href="#DejaVuSans-109"/>
      <use x="688.070312" xlink:href="#DejaVuSans-112"/>
      <use x="751.546875" xlink:href="#DejaVuSans-111"/>
      <use x="812.728516" xlink:href="#DejaVuSans-110"/>
      <use x="876.107422" xlink:href="#DejaVuSans-101"/>
      <use x="937.630859" xlink:href="#DejaVuSans-110"/>
      <use x="1001.009766" xlink:href="#DejaVuSans-116"/>
      <use x="1040.21875" xlink:href="#DejaVuSans-32"/>
      <use x="1072.005859" xlink:href="#DejaVuSans-50"/>
     </g>
    </g>
   </g>
   <g id="patch_3">
    <path d="M 54 384.48 
L 54 51.84 
" style="fill:none;stroke:#000000;stroke-linecap:square;stroke-linejoin:miter;stroke-width:0.8;"/>
   </g>
   <g id="patch_4">
    <path d="M 388.8 384.48 
L 388.8 51.84 
" style="fill:none;stroke:#000000;stroke-linecap:square;stroke-linejoin:miter;stroke-width:0.8;"/>
   </g>
   <g id="patch_5">
    <path d="M 54 384.48 
L 388.8 384.48 
" style="fill:none;stroke:#000000;stroke-linecap:square;stroke-linejoin:miter;stroke-width:0.8;"/>
   </g>
   <g id="patch_6">
    <path d="M 54 51.84 
L 388.8 51.84 
" style="fill:none;stroke:#000000;stroke-linecap:square;stroke-linejoin:miter;stroke-width:0.8;"/>
   </g>
   <g id="text_21">
    <!-- 0.95 -->
    <defs>
     <path d="M 10.6875 12.40625 
L 21 12.40625 
L 21 0 
L 10.6875 0 
z
" id="DejaVuSans-46"/>
     <path d="M 10.984375 1.515625 
L 10.984375 10.5 
Q 14.703125 8.734375 18.5 7.8125 
Q 22.3125 6.890625 25.984375 6.890625 
Q 35.75 6.890625 40.890625 13.453125 
Q 46.046875 20.015625 46.78125 33.40625 
Q 43.953125 29.203125 39.59375 26.953125 
Q 35.25 24.703125 29.984375 24.703125 
Q 19.046875 24.703125 12.671875 31.3125 
Q 6.296875 37.9375 6.296875 49.421875 
Q 6.296875 60.640625 12.9375 67.421875 
Q 19.578125 74.21875 30.609375 74.21875 
Q 43.265625 74.21875 49.921875 64.515625 
Q 56.59375 54.828125 56.59375 36.375 
Q 56.59375 19.140625 48.40625 8.859375 
Q 40.234375 -1.421875 26.421875 -1.421875 
Q 22.703125 -1.421875 18.890625 -0.6875 
Q 15.09375 0.046875 10.984375 1.515625 
z
M 30.609375 32.421875 
Q 37.25 32.421875 41.125 36.953125 
Q 45.015625 41.5 45.015625 49.421875 
Q 45.015625 57.28125 41.125 61.84375 
Q 37.25 66.40625 30.609375 66.40625 
Q 23.96875 66.40625 20.09375 61.84375 
Q 16.21875 57.28125 16.21875 49.421875 
Q 16.21875 41.5 20.09375 36.953125 
Q 23.96875 32.421875 30.609375 32.421875 
z
" id="DejaVuSans-57"/>
    </defs>
    <g transform="translate(99.929454 293.450648)scale(0.12 -0.12)">
     <use xlink:href="#DejaVuSans-48"/>
     <use x="63.623047" xlink:href="#DejaVuSans-46"/>
     <use x="95.410156" xlink:href="#DejaVuSans-57"/>
     <use x="159.033203" xlink:href="#DejaVuSans-53"/>
    </g>
   </g>
   <g id="text_22">
    <!-- 0.89 -->
    <defs>
     <path d="M 31.78125 34.625 
Q 24.75 34.625 20.71875 30.859375 
Q 16.703125 27.09375 16.703125 20.515625 
Q 16.703125 13.921875 20.71875 10.15625 
Q 24.75 6.390625 31.78125 6.390625 
Q 38.8125 6.390625 42.859375 10.171875 
Q 46.921875 13.96875 46.921875 20.515625 
Q 46.921875 27.09375 42.890625 30.859375 
Q 38.875 34.625 31.78125 34.625 
z
M 21.921875 38.8125 
Q 15.578125 40.375 12.03125 44.71875 
Q 8.5 49.078125 8.5 55.328125 
Q 8.5 64.0625 14.71875 69.140625 
Q 20.953125 74.21875 31.78125 74.21875 
Q 42.671875 74.21875 48.875 69.140625 
Q 55.078125 64.0625 55.078125 55.328125 
Q 55.078125 49.078125 51.53125 44.71875 
Q 48 40.375 41.703125 38.8125 
Q 48.828125 37.15625 52.796875 32.3125 
Q 56.78125 27.484375 56.78125 20.515625 
Q 56.78125 9.90625 50.3125 4.234375 
Q 43.84375 -1.421875 31.78125 -1.421875 
Q 19.734375 -1.421875 13.25 4.234375 
Q 6.78125 9.90625 6.78125 20.515625 
Q 6.78125 27.484375 10.78125 32.3125 
Q 14.796875 37.15625 21.921875 38.8125 
z
M 18.3125 54.390625 
Q 18.3125 48.734375 21.84375 45.5625 
Q 25.390625 42.390625 31.78125 42.390625 
Q 38.140625 42.390625 41.71875 45.5625 
Q 45.3125 48.734375 45.3125 54.390625 
Q 45.3125 60.0625 41.71875 63.234375 
Q 38.140625 66.40625 31.78125 66.40625 
Q 25.390625 66.40625 21.84375 63.234375 
Q 18.3125 60.0625 18.3125 54.390625 
z
" id="DejaVuSans-56"/>
    </defs>
    <g transform="translate(130.37802 301.850916)scale(0.12 -0.12)">
     <use xlink:href="#DejaVuSans-48"/>
     <use x="63.623047" xlink:href="#DejaVuSans-46"/>
     <use x="95.410156" xlink:href="#DejaVuSans-56"/>
     <use x="159.033203" xlink:href="#DejaVuSans-57"/>
    </g>
   </g>
   <g id="text_23">
    <!-- 0.89 -->
    <g transform="translate(252.000255 308.970101)scale(0.12 -0.12)">
     <use xlink:href="#DejaVuSans-48"/>
     <use x="63.623047" xlink:href="#DejaVuSans-46"/>
     <use x="95.410156" xlink:href="#DejaVuSans-56"/>
     <use x="159.033203" xlink:href="#DejaVuSans-57"/>
    </g>
   </g>
   <g id="text_24">
    <!-- 0.91 -->
    <g transform="translate(217.542291 320.566057)scale(0.12 -0.12)">
     <use xlink:href="#DejaVuSans-48"/>
     <use x="63.623047" xlink:href="#DejaVuSans-46"/>
     <use x="95.410156" xlink:href="#DejaVuSans-57"/>
     <use x="159.033203" xlink:href="#DejaVuSans-49"/>
    </g>
   </g>
   <g id="text_25">
    <!-- 0.96 -->
    <defs>
     <path d="M 33.015625 40.375 
Q 26.375 40.375 22.484375 35.828125 
Q 18.609375 31.296875 18.609375 23.390625 
Q 18.609375 15.53125 22.484375 10.953125 
Q 26.375 6.390625 33.015625 6.390625 
Q 39.65625 6.390625 43.53125 10.953125 
Q 47.40625 15.53125 47.40625 23.390625 
Q 47.40625 31.296875 43.53125 35.828125 
Q 39.65625 40.375 33.015625 40.375 
z
M 52.59375 71.296875 
L 52.59375 62.3125 
Q 48.875 64.0625 45.09375 64.984375 
Q 41.3125 65.921875 37.59375 65.921875 
Q 27.828125 65.921875 22.671875 59.328125 
Q 17.53125 52.734375 16.796875 39.40625 
Q 19.671875 43.65625 24.015625 45.921875 
Q 28.375 48.1875 33.59375 48.1875 
Q 44.578125 48.1875 50.953125 41.515625 
Q 57.328125 34.859375 57.328125 23.390625 
Q 57.328125 12.15625 50.6875 5.359375 
Q 44.046875 -1.421875 33.015625 -1.421875 
Q 20.359375 -1.421875 13.671875 8.265625 
Q 6.984375 17.96875 6.984375 36.375 
Q 6.984375 53.65625 15.1875 63.9375 
Q 23.390625 74.21875 37.203125 74.21875 
Q 40.921875 74.21875 44.703125 73.484375 
Q 48.484375 72.75 52.59375 71.296875 
z
" id="DejaVuSans-54"/>
    </defs>
    <g transform="translate(318.011447 66.970289)scale(0.12 -0.12)">
     <use xlink:href="#DejaVuSans-48"/>
     <use x="63.623047" xlink:href="#DejaVuSans-46"/>
     <use x="95.410156" xlink:href="#DejaVuSans-57"/>
     <use x="159.033203" xlink:href="#DejaVuSans-54"/>
    </g>
   </g>
   <g id="text_26">
    <!-- PCA on GEO dataset -->
    <defs>
     <path d="M 34.1875 63.1875 
L 20.796875 26.90625 
L 47.609375 26.90625 
z
M 28.609375 72.90625 
L 39.796875 72.90625 
L 67.578125 0 
L 57.328125 0 
L 50.6875 18.703125 
L 17.828125 18.703125 
L 11.1875 0 
L 0.78125 0 
z
" id="DejaVuSans-65"/>
     <path d="M 59.515625 10.40625 
L 59.515625 29.984375 
L 43.40625 29.984375 
L 43.40625 38.09375 
L 69.28125 38.09375 
L 69.28125 6.78125 
Q 63.578125 2.734375 56.6875 0.65625 
Q 49.8125 -1.421875 42 -1.421875 
Q 24.90625 -1.421875 15.25 8.5625 
Q 5.609375 18.5625 5.609375 36.375 
Q 5.609375 54.25 15.25 64.234375 
Q 24.90625 74.21875 42 74.21875 
Q 49.125 74.21875 55.546875 72.453125 
Q 61.96875 70.703125 67.390625 67.28125 
L 67.390625 56.78125 
Q 61.921875 61.421875 55.765625 63.765625 
Q 49.609375 66.109375 42.828125 66.109375 
Q 29.4375 66.109375 22.71875 58.640625 
Q 16.015625 51.171875 16.015625 36.375 
Q 16.015625 21.625 22.71875 14.15625 
Q 29.4375 6.6875 42.828125 6.6875 
Q 48.046875 6.6875 52.140625 7.59375 
Q 56.25 8.5 59.515625 10.40625 
z
" id="DejaVuSans-71"/>
     <path d="M 9.8125 72.90625 
L 55.90625 72.90625 
L 55.90625 64.59375 
L 19.671875 64.59375 
L 19.671875 43.015625 
L 54.390625 43.015625 
L 54.390625 34.71875 
L 19.671875 34.71875 
L 19.671875 8.296875 
L 56.78125 8.296875 
L 56.78125 0 
L 9.8125 0 
z
" id="DejaVuSans-69"/>
     <path d="M 39.40625 66.21875 
Q 28.65625 66.21875 22.328125 58.203125 
Q 16.015625 50.203125 16.015625 36.375 
Q 16.015625 22.609375 22.328125 14.59375 
Q 28.65625 6.59375 39.40625 6.59375 
Q 50.140625 6.59375 56.421875 14.59375 
Q 62.703125 22.609375 62.703125 36.375 
Q 62.703125 50.203125 56.421875 58.203125 
Q 50.140625 66.21875 39.40625 66.21875 
z
M 39.40625 74.21875 
Q 54.734375 74.21875 63.90625 63.9375 
Q 73.09375 53.65625 73.09375 36.375 
Q 73.09375 19.140625 63.90625 8.859375 
Q 54.734375 -1.421875 39.40625 -1.421875 
Q 24.03125 -1.421875 14.8125 8.828125 
Q 5.609375 19.09375 5.609375 36.375 
Q 5.609375 53.65625 14.8125 63.9375 
Q 24.03125 74.21875 39.40625 74.21875 
z
" id="DejaVuSans-79"/>
     <path d="M 45.40625 46.390625 
L 45.40625 75.984375 
L 54.390625 75.984375 
L 54.390625 0 
L 45.40625 0 
L 45.40625 8.203125 
Q 42.578125 3.328125 38.25 0.953125 
Q 33.9375 -1.421875 27.875 -1.421875 
Q 17.96875 -1.421875 11.734375 6.484375 
Q 5.515625 14.40625 5.515625 27.296875 
Q 5.515625 40.1875 11.734375 48.09375 
Q 17.96875 56 27.875 56 
Q 33.9375 56 38.25 53.625 
Q 42.578125 51.265625 45.40625 46.390625 
z
M 14.796875 27.296875 
Q 14.796875 17.390625 18.875 11.75 
Q 22.953125 6.109375 30.078125 6.109375 
Q 37.203125 6.109375 41.296875 11.75 
Q 45.40625 17.390625 45.40625 27.296875 
Q 45.40625 37.203125 41.296875 42.84375 
Q 37.203125 48.484375 30.078125 48.484375 
Q 22.953125 48.484375 18.875 42.84375 
Q 14.796875 37.203125 14.796875 27.296875 
z
" id="DejaVuSans-100"/>
     <path d="M 44.28125 53.078125 
L 44.28125 44.578125 
Q 40.484375 46.53125 36.375 47.5 
Q 32.28125 48.484375 27.875 48.484375 
Q 21.1875 48.484375 17.84375 46.4375 
Q 14.5 44.390625 14.5 40.28125 
Q 14.5 37.15625 16.890625 35.375 
Q 19.28125 33.59375 26.515625 31.984375 
L 29.59375 31.296875 
Q 39.15625 29.25 43.1875 25.515625 
Q 47.21875 21.78125 47.21875 15.09375 
Q 47.21875 7.46875 41.1875 3.015625 
Q 35.15625 -1.421875 24.609375 -1.421875 
Q 20.21875 -1.421875 15.453125 -0.5625 
Q 10.6875 0.296875 5.421875 2 
L 5.421875 11.28125 
Q 10.40625 8.6875 15.234375 7.390625 
Q 20.0625 6.109375 24.8125 6.109375 
Q 31.15625 6.109375 34.5625 8.28125 
Q 37.984375 10.453125 37.984375 14.40625 
Q 37.984375 18.0625 35.515625 20.015625 
Q 33.0625 21.96875 24.703125 23.78125 
L 21.578125 24.515625 
Q 13.234375 26.265625 9.515625 29.90625 
Q 5.8125 33.546875 5.8125 39.890625 
Q 5.8125 47.609375 11.28125 51.796875 
Q 16.75 56 26.8125 56 
Q 31.78125 56 36.171875 55.265625 
Q 40.578125 54.546875 44.28125 53.078125 
z
" id="DejaVuSans-115"/>
    </defs>
    <g transform="translate(140.1275 45.84)scale(0.16 -0.16)">
     <use xlink:href="#DejaVuSans-80"/>
     <use x="60.302734" xlink:href="#DejaVuSans-67"/>
     <use x="130.126953" xlink:href="#DejaVuSans-65"/>
     <use x="198.535156" xlink:href="#DejaVuSans-32"/>
     <use x="230.322266" xlink:href="#DejaVuSans-111"/>
     <use x="291.503906" xlink:href="#DejaVuSans-110"/>
     <use x="354.882812" xlink:href="#DejaVuSans-32"/>
     <use x="386.669922" xlink:href="#DejaVuSans-71"/>
     <use x="464.160156" xlink:href="#DejaVuSans-69"/>
     <use x="527.34375" xlink:href="#DejaVuSans-79"/>
     <use x="606.054688" xlink:href="#DejaVuSans-32"/>
     <use x="637.841797" xlink:href="#DejaVuSans-100"/>
     <use x="701.318359" xlink:href="#DejaVuSans-97"/>
     <use x="762.597656" xlink:href="#DejaVuSans-116"/>
     <use x="801.806641" xlink:href="#DejaVuSans-97"/>
     <use x="863.085938" xlink:href="#DejaVuSans-115"/>
     <use x="915.185547" xlink:href="#DejaVuSans-101"/>
     <use x="976.708984" xlink:href="#DejaVuSans-116"/>
    </g>
   </g>
   <g id="legend_1">
    <g id="patch_7">
     <path d="M 63.8 227.435 
L 163.66375 227.435 
Q 166.46375 227.435 166.46375 224.635 
L 166.46375 61.64 
Q 166.46375 58.84 163.66375 58.84 
L 63.8 58.84 
Q 61 58.84 61 61.64 
L 61 224.635 
Q 61 227.435 63.8 227.435 
z
" style="fill:#ffffff;opacity:0.5;stroke:#cccccc;stroke-linejoin:miter;"/>
    </g>
    <g id="PathCollection_10">
     <defs>
      <path id="m9ed7dc3e7e" style="stroke:#ffffff;stroke-width:1.5;"/>
     </defs>
     <g>
      <use style="fill:#ffffff;stroke:#ffffff;stroke-width:1.5;" x="80.6" xlink:href="#m9ed7dc3e7e" y="71.402812"/>
     </g>
    </g>
    <g id="text_27">
     <!-- Disease -->
     <defs>
      <path d="M 19.671875 64.796875 
L 19.671875 8.109375 
L 31.59375 8.109375 
Q 46.6875 8.109375 53.6875 14.9375 
Q 60.6875 21.78125 60.6875 36.53125 
Q 60.6875 51.171875 53.6875 57.984375 
Q 46.6875 64.796875 31.59375 64.796875 
z
M 9.8125 72.90625 
L 30.078125 72.90625 
Q 51.265625 72.90625 61.171875 64.09375 
Q 71.09375 55.28125 71.09375 36.53125 
Q 71.09375 17.671875 61.125 8.828125 
Q 51.171875 0 30.078125 0 
L 9.8125 0 
z
" id="DejaVuSans-68"/>
     </defs>
     <g transform="translate(105.8 75.077812)scale(0.14 -0.14)">
      <use xlink:href="#DejaVuSans-68"/>
      <use x="77.001953" xlink:href="#DejaVuSans-105"/>
      <use x="104.785156" xlink:href="#DejaVuSans-115"/>
      <use x="156.884766" xlink:href="#DejaVuSans-101"/>
      <use x="218.408203" xlink:href="#DejaVuSans-97"/>
      <use x="279.6875" xlink:href="#DejaVuSans-115"/>
      <use x="331.787109" xlink:href="#DejaVuSans-101"/>
     </g>
    </g>
    <g id="PathCollection_11">
     <defs>
      <path d="M 0 3 
C 0.795609 3 1.55874 2.683901 2.12132 2.12132 
C 2.683901 1.55874 3 0.795609 3 0 
C 3 -0.795609 2.683901 -1.55874 2.12132 -2.12132 
C 1.55874 -2.683901 0.795609 -3 0 -3 
C -0.795609 -3 -1.55874 -2.683901 -2.12132 -2.12132 
C -2.683901 -1.55874 -3 -0.795609 -3 0 
C -3 0.795609 -2.683901 1.55874 -2.12132 2.12132 
C -1.55874 2.683901 -0.795609 3 0 3 
z
" id="md04f30b59a" style="stroke:#1f77b4;"/>
     </defs>
     <g>
      <use style="fill:#1f77b4;stroke:#1f77b4;" x="80.6" xlink:href="#md04f30b59a" y="91.952187"/>
     </g>
    </g>
    <g id="text_28">
     <!-- NAFLD -->
     <defs>
      <path d="M 9.8125 72.90625 
L 23.09375 72.90625 
L 55.421875 11.921875 
L 55.421875 72.90625 
L 64.984375 72.90625 
L 64.984375 0 
L 51.703125 0 
L 19.390625 60.984375 
L 19.390625 0 
L 9.8125 0 
z
" id="DejaVuSans-78"/>
      <path d="M 9.8125 72.90625 
L 51.703125 72.90625 
L 51.703125 64.59375 
L 19.671875 64.59375 
L 19.671875 43.109375 
L 48.578125 43.109375 
L 48.578125 34.8125 
L 19.671875 34.8125 
L 19.671875 0 
L 9.8125 0 
z
" id="DejaVuSans-70"/>
      <path d="M 9.8125 72.90625 
L 19.671875 72.90625 
L 19.671875 8.296875 
L 55.171875 8.296875 
L 55.171875 0 
L 9.8125 0 
z
" id="DejaVuSans-76"/>
     </defs>
     <g transform="translate(105.8 95.627187)scale(0.14 -0.14)">
      <use xlink:href="#DejaVuSans-78"/>
      <use x="74.804688" xlink:href="#DejaVuSans-65"/>
      <use x="143.212891" xlink:href="#DejaVuSans-70"/>
      <use x="200.732422" xlink:href="#DejaVuSans-76"/>
      <use x="256.445312" xlink:href="#DejaVuSans-68"/>
     </g>
    </g>
    <g id="PathCollection_12">
     <defs>
      <path d="M 0 3 
C 0.795609 3 1.55874 2.683901 2.12132 2.12132 
C 2.683901 1.55874 3 0.795609 3 0 
C 3 -0.795609 2.683901 -1.55874 2.12132 -2.12132 
C 1.55874 -2.683901 0.795609 -3 0 -3 
C -0.795609 -3 -1.55874 -2.683901 -2.12132 -2.12132 
C -2.683901 -1.55874 -3 -0.795609 -3 0 
C -3 0.795609 -2.683901 1.55874 -2.12132 2.12132 
C -1.55874 2.683901 -0.795609 3 0 3 
z
" id="m09b6f493a7" style="stroke:#ff7f0e;"/>
     </defs>
     <g>
      <use style="fill:#ff7f0e;stroke:#ff7f0e;" x="80.6" xlink:href="#m09b6f493a7" y="112.501562"/>
     </g>
    </g>
    <g id="text_29">
     <!-- NASH -->
     <defs>
      <path d="M 53.515625 70.515625 
L 53.515625 60.890625 
Q 47.90625 63.578125 42.921875 64.890625 
Q 37.9375 66.21875 33.296875 66.21875 
Q 25.25 66.21875 20.875 63.09375 
Q 16.5 59.96875 16.5 54.203125 
Q 16.5 49.359375 19.40625 46.890625 
Q 22.3125 44.4375 30.421875 42.921875 
L 36.375 41.703125 
Q 47.40625 39.59375 52.65625 34.296875 
Q 57.90625 29 57.90625 20.125 
Q 57.90625 9.515625 50.796875 4.046875 
Q 43.703125 -1.421875 29.984375 -1.421875 
Q 24.8125 -1.421875 18.96875 -0.25 
Q 13.140625 0.921875 6.890625 3.21875 
L 6.890625 13.375 
Q 12.890625 10.015625 18.65625 8.296875 
Q 24.421875 6.59375 29.984375 6.59375 
Q 38.421875 6.59375 43.015625 9.90625 
Q 47.609375 13.234375 47.609375 19.390625 
Q 47.609375 24.75 44.3125 27.78125 
Q 41.015625 30.8125 33.5 32.328125 
L 27.484375 33.5 
Q 16.453125 35.6875 11.515625 40.375 
Q 6.59375 45.0625 6.59375 53.421875 
Q 6.59375 63.09375 13.40625 68.65625 
Q 20.21875 74.21875 32.171875 74.21875 
Q 37.3125 74.21875 42.625 73.28125 
Q 47.953125 72.359375 53.515625 70.515625 
z
" id="DejaVuSans-83"/>
      <path d="M 9.8125 72.90625 
L 19.671875 72.90625 
L 19.671875 43.015625 
L 55.515625 43.015625 
L 55.515625 72.90625 
L 65.375 72.90625 
L 65.375 0 
L 55.515625 0 
L 55.515625 34.71875 
L 19.671875 34.71875 
L 19.671875 0 
L 9.8125 0 
z
" id="DejaVuSans-72"/>
     </defs>
     <g transform="translate(105.8 116.176562)scale(0.14 -0.14)">
      <use xlink:href="#DejaVuSans-78"/>
      <use x="74.804688" xlink:href="#DejaVuSans-65"/>
      <use x="143.212891" xlink:href="#DejaVuSans-83"/>
      <use x="206.689453" xlink:href="#DejaVuSans-72"/>
     </g>
    </g>
    <g id="PathCollection_13">
     <defs>
      <path d="M 0 3 
C 0.795609 3 1.55874 2.683901 2.12132 2.12132 
C 2.683901 1.55874 3 0.795609 3 0 
C 3 -0.795609 2.683901 -1.55874 2.12132 -2.12132 
C 1.55874 -2.683901 0.795609 -3 0 -3 
C -0.795609 -3 -1.55874 -2.683901 -2.12132 -2.12132 
C -2.683901 -1.55874 -3 -0.795609 -3 0 
C -3 0.795609 -2.683901 1.55874 -2.12132 2.12132 
C -1.55874 2.683901 -0.795609 3 0 3 
z
" id="ma6c6c9ad6a" style="stroke:#2ca02c;"/>
     </defs>
     <g>
      <use style="fill:#2ca02c;stroke:#2ca02c;" x="80.6" xlink:href="#ma6c6c9ad6a" y="133.050937"/>
     </g>
    </g>
    <g id="text_30">
     <!-- healthy -->
     <defs>
      <path d="M 54.890625 33.015625 
L 54.890625 0 
L 45.90625 0 
L 45.90625 32.71875 
Q 45.90625 40.484375 42.875 44.328125 
Q 39.84375 48.1875 33.796875 48.1875 
Q 26.515625 48.1875 22.3125 43.546875 
Q 18.109375 38.921875 18.109375 30.90625 
L 18.109375 0 
L 9.078125 0 
L 9.078125 75.984375 
L 18.109375 75.984375 
L 18.109375 46.1875 
Q 21.34375 51.125 25.703125 53.5625 
Q 30.078125 56 35.796875 56 
Q 45.21875 56 50.046875 50.171875 
Q 54.890625 44.34375 54.890625 33.015625 
z
" id="DejaVuSans-104"/>
      <path d="M 32.171875 -5.078125 
Q 28.375 -14.84375 24.75 -17.8125 
Q 21.140625 -20.796875 15.09375 -20.796875 
L 7.90625 -20.796875 
L 7.90625 -13.28125 
L 13.1875 -13.28125 
Q 16.890625 -13.28125 18.9375 -11.515625 
Q 21 -9.765625 23.484375 -3.21875 
L 25.09375 0.875 
L 2.984375 54.6875 
L 12.5 54.6875 
L 29.59375 11.921875 
L 46.6875 54.6875 
L 56.203125 54.6875 
z
" id="DejaVuSans-121"/>
     </defs>
     <g transform="translate(105.8 136.725937)scale(0.14 -0.14)">
      <use xlink:href="#DejaVuSans-104"/>
      <use x="63.378906" xlink:href="#DejaVuSans-101"/>
      <use x="124.902344" xlink:href="#DejaVuSans-97"/>
      <use x="186.181641" xlink:href="#DejaVuSans-108"/>
      <use x="213.964844" xlink:href="#DejaVuSans-116"/>
      <use x="253.173828" xlink:href="#DejaVuSans-104"/>
      <use x="316.552734" xlink:href="#DejaVuSans-121"/>
     </g>
    </g>
    <g id="PathCollection_14">
     <defs>
      <path d="M 0 3 
C 0.795609 3 1.55874 2.683901 2.12132 2.12132 
C 2.683901 1.55874 3 0.795609 3 0 
C 3 -0.795609 2.683901 -1.55874 2.12132 -2.12132 
C 1.55874 -2.683901 0.795609 -3 0 -3 
C -0.795609 -3 -1.55874 -2.683901 -2.12132 -2.12132 
C -2.683901 -1.55874 -3 -0.795609 -3 0 
C -3 0.795609 -2.683901 1.55874 -2.12132 2.12132 
C -1.55874 2.683901 -0.795609 3 0 3 
z
" id="mfb8222cc7c" style="stroke:#d62728;"/>
     </defs>
     <g>
      <use style="fill:#d62728;stroke:#d62728;" x="80.6" xlink:href="#mfb8222cc7c" y="153.600312"/>
     </g>
    </g>
    <g id="text_31">
     <!-- obese -->
     <defs>
      <path d="M 48.6875 27.296875 
Q 48.6875 37.203125 44.609375 42.84375 
Q 40.53125 48.484375 33.40625 48.484375 
Q 26.265625 48.484375 22.1875 42.84375 
Q 18.109375 37.203125 18.109375 27.296875 
Q 18.109375 17.390625 22.1875 11.75 
Q 26.265625 6.109375 33.40625 6.109375 
Q 40.53125 6.109375 44.609375 11.75 
Q 48.6875 17.390625 48.6875 27.296875 
z
M 18.109375 46.390625 
Q 20.953125 51.265625 25.265625 53.625 
Q 29.59375 56 35.59375 56 
Q 45.5625 56 51.78125 48.09375 
Q 58.015625 40.1875 58.015625 27.296875 
Q 58.015625 14.40625 51.78125 6.484375 
Q 45.5625 -1.421875 35.59375 -1.421875 
Q 29.59375 -1.421875 25.265625 0.953125 
Q 20.953125 3.328125 18.109375 8.203125 
L 18.109375 0 
L 9.078125 0 
L 9.078125 75.984375 
L 18.109375 75.984375 
z
" id="DejaVuSans-98"/>
     </defs>
     <g transform="translate(105.8 157.275312)scale(0.14 -0.14)">
      <use xlink:href="#DejaVuSans-111"/>
      <use x="61.181641" xlink:href="#DejaVuSans-98"/>
      <use x="124.658203" xlink:href="#DejaVuSans-101"/>
      <use x="186.181641" xlink:href="#DejaVuSans-115"/>
      <use x="238.28125" xlink:href="#DejaVuSans-101"/>
     </g>
    </g>
    <g id="PathCollection_15">
     <g>
      <use style="fill:#ffffff;stroke:#ffffff;stroke-width:1.5;" x="80.6" xlink:href="#m9ed7dc3e7e" y="174.149687"/>
     </g>
    </g>
    <g id="text_32">
     <!-- Gender -->
     <g transform="translate(105.8 177.824687)scale(0.14 -0.14)">
      <use xlink:href="#DejaVuSans-71"/>
      <use x="77.490234" xlink:href="#DejaVuSans-101"/>
      <use x="139.013672" xlink:href="#DejaVuSans-110"/>
      <use x="202.392578" xlink:href="#DejaVuSans-100"/>
      <use x="265.869141" xlink:href="#DejaVuSans-101"/>
      <use x="327.392578" xlink:href="#DejaVuSans-114"/>
     </g>
    </g>
    <g id="PathCollection_16">
     <defs>
      <path d="M 0 3 
C 0.795609 3 1.55874 2.683901 2.12132 2.12132 
C 2.683901 1.55874 3 0.795609 3 0 
C 3 -0.795609 2.683901 -1.55874 2.12132 -2.12132 
C 1.55874 -2.683901 0.795609 -3 0 -3 
C -0.795609 -3 -1.55874 -2.683901 -2.12132 -2.12132 
C -2.683901 -1.55874 -3 -0.795609 -3 0 
C -3 0.795609 -2.683901 1.55874 -2.12132 2.12132 
C -1.55874 2.683901 -0.795609 3 0 3 
z
" id="m7dbca3dd88" style="stroke:#333333;"/>
     </defs>
     <g>
      <use style="fill:#333333;stroke:#333333;" x="80.6" xlink:href="#m7dbca3dd88" y="194.699062"/>
     </g>
    </g>
    <g id="text_33">
     <!-- Male -->
     <defs>
      <path d="M 9.8125 72.90625 
L 24.515625 72.90625 
L 43.109375 23.296875 
L 61.8125 72.90625 
L 76.515625 72.90625 
L 76.515625 0 
L 66.890625 0 
L 66.890625 64.015625 
L 48.09375 14.015625 
L 38.1875 14.015625 
L 19.390625 64.015625 
L 19.390625 0 
L 9.8125 0 
z
" id="DejaVuSans-77"/>
     </defs>
     <g transform="translate(105.8 198.374062)scale(0.14 -0.14)">
      <use xlink:href="#DejaVuSans-77"/>
      <use x="86.279297" xlink:href="#DejaVuSans-97"/>
      <use x="147.558594" xlink:href="#DejaVuSans-108"/>
      <use x="175.341797" xlink:href="#DejaVuSans-101"/>
     </g>
    </g>
    <g id="PathCollection_17">
     <defs>
      <path d="M -1.5 3 
L 0 1.5 
L 1.5 3 
L 3 1.5 
L 1.5 0 
L 3 -1.5 
L 1.5 -3 
L 0 -1.5 
L -1.5 -3 
L -3 -1.5 
L -1.5 0 
L -3 1.5 
z
" id="md0af571c32" style="stroke:#333333;"/>
     </defs>
     <g>
      <use style="fill:#333333;stroke:#333333;" x="80.6" xlink:href="#md0af571c32" y="215.248437"/>
     </g>
    </g>
    <g id="text_34">
     <!-- Female -->
     <g transform="translate(105.8 218.923437)scale(0.14 -0.14)">
      <use xlink:href="#DejaVuSans-70"/>
      <use x="57.441406" xlink:href="#DejaVuSans-101"/>
      <use x="118.964844" xlink:href="#DejaVuSans-109"/>
      <use x="216.376953" xlink:href="#DejaVuSans-97"/>
      <use x="277.65625" xlink:href="#DejaVuSans-108"/>
      <use x="305.439453" xlink:href="#DejaVuSans-101"/>
     </g>
    </g>
   </g>
  </g>
 </g>
 <defs>
  <clipPath id="p9c30defc64">
   <rect height="332.64" width="334.8" x="54" y="51.84"/>
  </clipPath>
 </defs>
</svg>
